%TF.GenerationSoftware,KiCad,Pcbnew,10.0.2*%
%TF.CreationDate,2026-05-14T09:20:35+02:00*%
%TF.ProjectId,USB-DB9_Adapter,5553422d-4442-4395-9f41-646170746572,rev?*%
%TF.SameCoordinates,Original*%
%TF.FileFunction,Paste,Top*%
%TF.FilePolarity,Positive*%
%FSLAX46Y46*%
G04 Gerber Fmt 4.6, Leading zero omitted, Abs format (unit mm)*
G04 Created by KiCad (PCBNEW 10.0.2) date 2026-05-14 09:20:35*
%MOMM*%
%LPD*%
G01*
G04 APERTURE LIST*
%ADD10R,0.250000X0.850000*%
%ADD11R,0.850000X0.250000*%
%ADD12R,3.600000X3.600000*%
%ADD13R,1.050000X1.080000*%
%ADD14R,1.520000X0.780000*%
%ADD15R,1.080000X1.050000*%
%ADD16R,0.600000X1.200000*%
%ADD17R,1.100000X1.000000*%
%ADD18R,1.000000X1.100000*%
%ADD19R,1.500000X1.500000*%
%ADD20R,0.780000X0.880000*%
%ADD21R,1.200000X2.400000*%
G04 APERTURE END LIST*
D10*
%TO.C,IC2*%
X145747350Y-106990100D03*
X146247350Y-106990100D03*
X146747350Y-106990100D03*
X147247350Y-106990100D03*
X147747350Y-106990100D03*
X148247350Y-106990100D03*
X148747350Y-106990100D03*
X149247350Y-106990100D03*
D11*
X149947350Y-106290100D03*
X149947350Y-105790100D03*
X149947350Y-105290100D03*
X149947350Y-104790100D03*
X149947350Y-104290100D03*
X149947350Y-103790100D03*
X149947350Y-103290100D03*
X149947350Y-102790100D03*
D10*
X149247350Y-102090100D03*
X148747350Y-102090100D03*
X148247350Y-102090100D03*
X147747350Y-102090100D03*
X147247350Y-102090100D03*
X146747350Y-102090100D03*
X146247350Y-102090100D03*
X145747350Y-102090100D03*
D11*
X145047350Y-102790100D03*
X145047350Y-103290100D03*
X145047350Y-103790100D03*
X145047350Y-104290100D03*
X145047350Y-104790100D03*
X145047350Y-105290100D03*
X145047350Y-105790100D03*
X145047350Y-106290100D03*
D12*
X147497350Y-104540100D03*
%TD*%
D13*
%TO.C,C1*%
X154849350Y-97555100D03*
X153099350Y-97555100D03*
%TD*%
%TO.C,C2*%
X146749350Y-108985100D03*
X148499350Y-108985100D03*
%TD*%
D14*
%TO.C,D2*%
X154228350Y-106073100D03*
X154228350Y-107853100D03*
%TD*%
%TO.C,D3*%
X156260350Y-100594100D03*
X156260350Y-98814100D03*
%TD*%
%TO.C,D1*%
X152196350Y-106073100D03*
X152196350Y-107853100D03*
%TD*%
D15*
%TO.C,C4*%
X145719350Y-96934100D03*
X145719350Y-98684100D03*
%TD*%
D16*
%TO.C,VD1*%
X147817350Y-99093100D03*
X148767350Y-99093100D03*
X149717350Y-99093100D03*
X149717350Y-96793100D03*
X148767350Y-96793100D03*
X147817350Y-96793100D03*
%TD*%
D17*
%TO.C,R15*%
X154736350Y-103055100D03*
X154736350Y-104755100D03*
%TD*%
%TO.C,R29*%
X156387350Y-103055100D03*
X156387350Y-104755100D03*
%TD*%
%TO.C,R14*%
X153085350Y-103055100D03*
X153085350Y-104755100D03*
%TD*%
D18*
%TO.C,R41*%
X150838350Y-100677494D03*
X152538350Y-100677494D03*
%TD*%
D19*
%TO.C,S2*%
X142417350Y-99385100D03*
X142417350Y-105885100D03*
%TD*%
D20*
%TO.C,U2*%
X156056950Y-113412500D03*
X156996950Y-111332500D03*
X157936950Y-113412500D03*
%TD*%
D21*
%TO.C,X1*%
X145285350Y-94612100D03*
X147785350Y-94612100D03*
X149885350Y-94612100D03*
X152285350Y-94612100D03*
%TD*%
D13*
%TO.C,C3*%
X157719550Y-115004900D03*
X155969550Y-115004900D03*
%TD*%
D14*
%TO.C,D4*%
X156260350Y-106073100D03*
X156260350Y-107853100D03*
%TD*%
%TO.C,D5*%
X154228350Y-100594100D03*
X154228350Y-98814100D03*
%TD*%
D18*
%TO.C,R19*%
X150838350Y-99079100D03*
X152538350Y-99079100D03*
%TD*%
D17*
%TO.C,R11*%
X154228350Y-94419100D03*
X154228350Y-96119100D03*
%TD*%
D18*
%TO.C,R1*%
X143394350Y-97682100D03*
X141694350Y-97682100D03*
%TD*%
D13*
%TO.C,C5*%
X155865350Y-109366100D03*
X154115350Y-109366100D03*
%TD*%
M02*
