%TF.GenerationSoftware,KiCad,Pcbnew,10.0.2*%
%TF.CreationDate,2026-05-14T09:20:35+02:00*%
%TF.ProjectId,USB-DB9_Adapter,5553422d-4442-4395-9f41-646170746572,rev?*%
%TF.SameCoordinates,Original*%
%TF.FileFunction,Copper,L2,Bot*%
%TF.FilePolarity,Positive*%
%FSLAX46Y46*%
G04 Gerber Fmt 4.6, Leading zero omitted, Abs format (unit mm)*
G04 Created by KiCad (PCBNEW 10.0.2) date 2026-05-14 09:20:35*
%MOMM*%
%LPD*%
G01*
G04 APERTURE LIST*
G04 Aperture macros list*
%AMRoundRect*
0 Rectangle with rounded corners*
0 $1 Rounding radius*
0 $2 $3 $4 $5 $6 $7 $8 $9 X,Y pos of 4 corners*
0 Add a 4 corners polygon primitive as box body*
4,1,4,$2,$3,$4,$5,$6,$7,$8,$9,$2,$3,0*
0 Add four circle primitives for the rounded corners*
1,1,$1+$1,$2,$3*
1,1,$1+$1,$4,$5*
1,1,$1+$1,$6,$7*
1,1,$1+$1,$8,$9*
0 Add four rect primitives between the rounded corners*
20,1,$1+$1,$2,$3,$4,$5,0*
20,1,$1+$1,$4,$5,$6,$7,0*
20,1,$1+$1,$6,$7,$8,$9,0*
20,1,$1+$1,$8,$9,$2,$3,0*%
%AMOutline5P*
0 Free polygon, 5 corners , with rotation*
0 The origin of the aperture is its center*
0 number of corners: always 5*
0 $1 to $10 corner X, Y*
0 $11 Rotation angle, in degrees counterclockwise*
0 create outline with 5 corners*
4,1,5,$1,$2,$3,$4,$5,$6,$7,$8,$9,$10,$1,$2,$11*%
%AMOutline6P*
0 Free polygon, 6 corners , with rotation*
0 The origin of the aperture is its center*
0 number of corners: always 6*
0 $1 to $12 corner X, Y*
0 $13 Rotation angle, in degrees counterclockwise*
0 create outline with 6 corners*
4,1,6,$1,$2,$3,$4,$5,$6,$7,$8,$9,$10,$11,$12,$1,$2,$13*%
%AMOutline7P*
0 Free polygon, 7 corners , with rotation*
0 The origin of the aperture is its center*
0 number of corners: always 7*
0 $1 to $14 corner X, Y*
0 $15 Rotation angle, in degrees counterclockwise*
0 create outline with 7 corners*
4,1,7,$1,$2,$3,$4,$5,$6,$7,$8,$9,$10,$11,$12,$13,$14,$1,$2,$15*%
%AMOutline8P*
0 Free polygon, 8 corners , with rotation*
0 The origin of the aperture is its center*
0 number of corners: always 8*
0 $1 to $16 corner X, Y*
0 $17 Rotation angle, in degrees counterclockwise*
0 create outline with 8 corners*
4,1,8,$1,$2,$3,$4,$5,$6,$7,$8,$9,$10,$11,$12,$13,$14,$15,$16,$1,$2,$17*%
G04 Aperture macros list end*
%TA.AperFunction,ComponentPad*%
%ADD10Outline8P,-0.762000X0.315631X-0.315631X0.762000X0.315631X0.762000X0.762000X0.315631X0.762000X-0.315631X0.315631X-0.762000X-0.315631X-0.762000X-0.762000X-0.315631X0.000000*%
%TD*%
%TA.AperFunction,ComponentPad*%
%ADD11Outline8P,-0.508000X0.210420X-0.210420X0.508000X0.210420X0.508000X0.508000X0.210420X0.508000X-0.210420X0.210420X-0.508000X-0.210420X-0.508000X-0.508000X-0.210420X0.000000*%
%TD*%
%TA.AperFunction,ComponentPad*%
%ADD12R,1.016000X1.016000*%
%TD*%
%TA.AperFunction,ComponentPad*%
%ADD13C,3.000000*%
%TD*%
%TA.AperFunction,SMDPad,CuDef*%
%ADD14RoundRect,0.635000X0.000010X0.000010X-0.000010X0.000010X-0.000010X-0.000010X0.000010X-0.000010X0*%
%TD*%
%TA.AperFunction,SMDPad,CuDef*%
%ADD15RoundRect,0.635000X-0.000010X-0.000010X0.000010X-0.000010X0.000010X0.000010X-0.000010X0.000010X0*%
%TD*%
%TA.AperFunction,ViaPad*%
%ADD16C,0.657200*%
%TD*%
%TA.AperFunction,ViaPad*%
%ADD17C,0.757200*%
%TD*%
%TA.AperFunction,ViaPad*%
%ADD18C,0.600000*%
%TD*%
%TA.AperFunction,ViaPad*%
%ADD19C,0.957200*%
%TD*%
%TA.AperFunction,Conductor*%
%ADD20C,0.200000*%
%TD*%
%TA.AperFunction,Conductor*%
%ADD21C,0.254000*%
%TD*%
%TA.AperFunction,Conductor*%
%ADD22C,0.400000*%
%TD*%
%TA.AperFunction,Conductor*%
%ADD23C,0.300000*%
%TD*%
G04 APERTURE END LIST*
D10*
%TO.P,X4,1,1_1*%
%TO.N,/UP*%
X143398950Y-112922100D03*
%TO.P,X4,2,2_2*%
%TO.N,/DOWN*%
X146142150Y-112922100D03*
%TO.P,X4,3,3_3*%
%TO.N,/LEFT*%
X148885350Y-112922100D03*
%TO.P,X4,4,4_4*%
%TO.N,/RIGHT*%
X151628550Y-112922100D03*
%TO.P,X4,5,5_5*%
%TO.N,/BUTTON3*%
X154371750Y-112922100D03*
%TO.P,X4,6,6_6*%
%TO.N,/BUTTON1*%
X144770550Y-115462100D03*
%TO.P,X4,7,7_7*%
%TO.N,VCC*%
X147513750Y-115462100D03*
%TO.P,X4,8,8_8*%
%TO.N,GND*%
X150256950Y-115462100D03*
%TO.P,X4,9,9_9*%
%TO.N,/BUTTON2*%
X153000150Y-115462100D03*
%TD*%
D11*
%TO.P,X7,GND,>NAME_GND*%
%TO.N,GND*%
X147497350Y-110382100D03*
%TO.P,X7,NRST,>NAME_NRST*%
%TO.N,Net-(IC2-PF2-NRST)*%
X150037350Y-110382100D03*
%TO.P,X7,SWDCLK,>NAME_SWDCLK*%
%TO.N,Net-(IC2-PA14-BOOT0)*%
X148767350Y-110382100D03*
%TO.P,X7,SWDIO,>NAME_SWDIO*%
%TO.N,Net-(IC2-PA13)*%
X146227350Y-110382100D03*
D12*
%TO.P,X7,VDD,>NAME_VDD*%
%TO.N,/3V3*%
X144957350Y-110382100D03*
%TD*%
D13*
%TO.P,X1,S1,S1_S1*%
%TO.N,Net-(C1-Pad1)*%
X143185350Y-91612100D03*
%TO.P,X1,S2,S2_S2*%
X154585350Y-91612100D03*
%TD*%
D14*
%TO.P,TP13,TP,TP_TP*%
%TO.N,Net-(IC2-PA10)*%
X141147350Y-99714100D03*
%TD*%
%TO.P,TP12,TP,TP_TP*%
%TO.N,Net-(IC2-PB15)*%
X151942350Y-103524100D03*
%TD*%
%TO.P,TP1,TP,TP_TP*%
%TO.N,Net-(IC2-PB7)*%
X141147350Y-108858100D03*
%TD*%
%TO.P,TP11,TP,TP_TP*%
%TO.N,GND*%
X151942350Y-96723200D03*
%TD*%
%TO.P,TP4,TP,TP_TP*%
%TO.N,Net-(IC2-PA3)*%
X151942350Y-105175100D03*
%TD*%
%TO.P,TP7,TP,TP_TP*%
%TO.N,Net-(IC2-PA2)*%
X151942350Y-106953100D03*
%TD*%
%TO.P,TP5,TP,TP_TP*%
%TO.N,Net-(IC2-PD2)*%
X141147350Y-103143100D03*
%TD*%
%TO.P,TP2,TP,TP_TP*%
%TO.N,Net-(IC2-PB6)*%
X141147350Y-106953100D03*
%TD*%
%TO.P,TP9,TP,TP_TP*%
%TO.N,Net-(IC2-PA8)*%
X151942350Y-100603100D03*
%TD*%
%TO.P,TP3,TP,TP_TP*%
%TO.N,/UP*%
X141147350Y-110585300D03*
%TD*%
%TO.P,TP6,TP,TP_TP*%
%TO.N,Net-(IC2-PD1)*%
X141147350Y-101492100D03*
%TD*%
%TO.P,TP15,TP,TP_TP*%
%TO.N,Net-(IC2-PD3)*%
X141147350Y-105048100D03*
%TD*%
D15*
%TO.P,TP10,TP,TP_TP*%
%TO.N,VCC*%
X141147350Y-98063100D03*
%TD*%
D14*
%TO.P,TP8,TP,TP_TP*%
%TO.N,Net-(IC2-PA9)*%
X151942350Y-98952100D03*
%TD*%
D16*
%TO.N,/3V3*%
X147751350Y-100222100D03*
X143052350Y-105302100D03*
D17*
%TO.N,GND*%
X151942350Y-97555100D03*
X155244350Y-115589100D03*
X147497350Y-104540100D03*
X154101350Y-108350100D03*
X153085350Y-96412100D03*
X148767350Y-99714100D03*
X145465350Y-99460100D03*
D16*
%TO.N,/BUTTON1*%
X150926350Y-107842100D03*
%TO.N,Net-(IC2-PA2)*%
X150926350Y-106953100D03*
%TO.N,Net-(IC2-PA3)*%
X150926350Y-106064100D03*
%TO.N,/BUTTON2*%
X150545350Y-102254100D03*
%TO.N,Net-(IC2-PB15)*%
X149910350Y-101619100D03*
%TO.N,Net-(IC2-PA8)*%
X149783350Y-100603100D03*
%TO.N,Net-(IC2-PA9)*%
X148894350Y-100603100D03*
%TO.N,Net-(IC2-PA10)*%
X147116350Y-100857100D03*
%TO.N,Net-(IC2-PA13)*%
X145084350Y-101746100D03*
%TO.N,Net-(IC2-PA14-BOOT0)*%
X144068350Y-101238100D03*
D18*
%TO.N,/LEFT*%
X148868950Y-114584100D03*
D16*
%TO.N,Net-(IC2-PD1)*%
X142544350Y-102508100D03*
D17*
%TO.N,Net-(IC2-PD2)*%
X143310350Y-103782100D03*
D16*
%TO.N,Net-(IC2-PD3)*%
X142565250Y-104307000D03*
%TO.N,Net-(IC2-PB6)*%
X142036350Y-107461100D03*
%TO.N,Net-(IC2-PB7)*%
X141909350Y-108858100D03*
%TO.N,/UP*%
X144576350Y-106953100D03*
D19*
%TO.N,VCC*%
X156133350Y-110255100D03*
D17*
X143814350Y-96158100D03*
%TD*%
%TO.N,/UP*%
D20*
X141147350Y-110585300D02*
X143398950Y-112836900D01*
X143398950Y-112836900D02*
X143398950Y-112922100D01*
%TO.N,/RIGHT*%
D21*
X151256550Y-112922100D02*
X151180350Y-112795100D01*
%TO.N,/3V3*%
D20*
X143412750Y-101092000D02*
X143412750Y-100966541D01*
D21*
X143052350Y-105308400D02*
X144525550Y-105308400D01*
X144576350Y-105353019D02*
X144779431Y-105556100D01*
X145673350Y-106450019D02*
X145673350Y-109617672D01*
X144525550Y-105308400D02*
X144576350Y-105359200D01*
D20*
X147744950Y-101117475D02*
X147744950Y-101073450D01*
D21*
X144576350Y-105359200D02*
X144582531Y-105359200D01*
D20*
X145979775Y-100609500D02*
X146868675Y-101498400D01*
D21*
X144582531Y-105359200D02*
X144779431Y-105556100D01*
D20*
X147744950Y-101073450D02*
X147751350Y-101067050D01*
D21*
X144779431Y-105556100D02*
X145673350Y-106450019D01*
X145673350Y-109617672D02*
X145320559Y-109970463D01*
X144576350Y-102767950D02*
X144576350Y-105353019D01*
D20*
X143412750Y-100966541D02*
X143412750Y-100909950D01*
X147751350Y-101067050D02*
X147751350Y-100222100D01*
D21*
X145320559Y-109970463D02*
X144957350Y-110382100D01*
D20*
X143412750Y-100909950D02*
X143713200Y-100609500D01*
D21*
X143052350Y-105302100D02*
X143052350Y-105308400D01*
X143412750Y-101604350D02*
X144576350Y-102767950D01*
X144576350Y-110255100D02*
X144957350Y-110382100D01*
D20*
X143713200Y-100609500D02*
X145979775Y-100609500D01*
X147364025Y-101498400D02*
X147744950Y-101117475D01*
X146868675Y-101498400D02*
X147364025Y-101498400D01*
D21*
X143412750Y-100966541D02*
X143412750Y-101604350D01*
%TO.N,GND*%
D22*
X152774250Y-96723200D02*
X153085350Y-96412100D01*
X151892000Y-96723200D02*
X152774250Y-96723200D01*
%TO.N,/BUTTON1*%
D21*
X144576350Y-115462100D02*
X145592350Y-116986100D01*
X150926350Y-107936620D02*
X150926350Y-107842100D01*
X154089150Y-115011020D02*
X154096290Y-115018160D01*
X155460750Y-112471020D02*
X150926350Y-107936620D01*
X153237750Y-116986100D02*
X154089150Y-116134700D01*
X154089150Y-116134700D02*
X154089150Y-115011020D01*
X154096290Y-115018160D02*
X155460750Y-113653700D01*
X155460750Y-113653700D02*
X155460750Y-112471020D01*
X145592350Y-116986100D02*
X153237750Y-116986100D01*
X144398550Y-115462100D02*
X144576350Y-115462100D01*
%TO.N,Net-(IC2-PA2)*%
D20*
X150926350Y-106953100D02*
X151942350Y-106953100D01*
%TO.N,Net-(IC2-PA3)*%
X150926350Y-106064100D02*
X150926350Y-105851900D01*
X150926350Y-105851900D02*
X151772750Y-105005500D01*
X151772750Y-105005500D02*
X151942350Y-105175100D01*
%TO.N,/BUTTON2*%
X153304950Y-111109675D02*
X150256950Y-108061675D01*
X150256950Y-102542500D02*
X150545350Y-102254100D01*
X153304950Y-114785300D02*
X153304950Y-111109675D01*
X150672350Y-102381100D02*
X150545350Y-102254100D01*
X150256950Y-108061675D02*
X150256950Y-102542500D01*
X152628150Y-115462100D02*
X153304950Y-114785300D01*
%TO.N,Net-(IC2-PB15)*%
D21*
X149980250Y-101549200D02*
X149910350Y-101619100D01*
X150771250Y-101549200D02*
X149980250Y-101549200D01*
D20*
X151942350Y-103143100D02*
X151942350Y-102861140D01*
D21*
X151942350Y-103143100D02*
X151942350Y-102720300D01*
X151942350Y-102720300D02*
X150771250Y-101549200D01*
D20*
X151942350Y-102861140D02*
X151942350Y-103397100D01*
%TO.N,Net-(IC2-PA8)*%
X149808750Y-100577700D02*
X151789950Y-100577700D01*
X151789950Y-100577700D02*
X151815350Y-100603100D01*
X149783350Y-100603100D02*
X149808750Y-100577700D01*
%TO.N,Net-(IC2-PA9)*%
X151897850Y-98907600D02*
X151942350Y-98952100D01*
X149154750Y-100342725D02*
X149783375Y-99714100D01*
X149783375Y-99714100D02*
X151120550Y-99714100D01*
X149154750Y-100603100D02*
X149154750Y-100342725D01*
X148894350Y-100603100D02*
X149154750Y-100603100D01*
X151897850Y-98936800D02*
X151897850Y-98907600D01*
X151120550Y-99714100D02*
X151897850Y-98936800D01*
%TO.N,Net-(IC2-PA10)*%
X146132700Y-100209500D02*
X146145461Y-100209500D01*
X141401350Y-99714100D02*
X142905665Y-99714100D01*
X143369165Y-100177600D02*
X146100800Y-100177600D01*
X146793061Y-100857100D02*
X147116350Y-100857100D01*
X146145461Y-100209500D02*
X146793061Y-100857100D01*
X142905665Y-99714100D02*
X143369165Y-100177600D01*
X146100800Y-100177600D02*
X146132700Y-100209500D01*
%TO.N,Net-(IC2-PA13)*%
X145034000Y-101746100D02*
X145084350Y-101746100D01*
X146227350Y-110382100D02*
X146227350Y-109874100D01*
X146227350Y-109874100D02*
X146100350Y-109747100D01*
X146100350Y-109747100D02*
X146100350Y-106273150D01*
X145034000Y-105206800D02*
X145034000Y-101746100D01*
X146100350Y-106273150D02*
X145034000Y-105206800D01*
%TO.N,Net-(IC2-PA14-BOOT0)*%
X145719350Y-101492100D02*
X145719350Y-102032250D01*
X148767350Y-109493100D02*
X148767350Y-110382100D01*
X145465350Y-105053950D02*
X146608350Y-106196950D01*
X144068350Y-101365100D02*
X144449350Y-101111100D01*
X146989350Y-108858100D02*
X148132350Y-108858100D01*
X145465350Y-102286250D02*
X145465350Y-105053950D01*
X146608350Y-106196950D02*
X146608350Y-108477100D01*
X146608350Y-108477100D02*
X146989350Y-108858100D01*
D21*
X144068350Y-101238100D02*
X144068350Y-101365100D01*
D20*
X144449350Y-101111100D02*
X145338350Y-101111100D01*
X145338350Y-101111100D02*
X145719350Y-101492100D01*
X148132350Y-108858100D02*
X148767350Y-109493100D01*
X145719350Y-102032250D02*
X145465350Y-102286250D01*
%TO.N,/LEFT*%
X148868950Y-113277700D02*
X148513350Y-112922100D01*
X148868950Y-114584100D02*
X148868950Y-113277700D01*
%TO.N,Net-(IC2-PD1)*%
X141300000Y-101640871D02*
X141274350Y-101615221D01*
X142544350Y-102508100D02*
X142433750Y-102508100D01*
X141566521Y-101640871D02*
X141300000Y-101640871D01*
X141274350Y-101615221D02*
X141274350Y-101492100D01*
X142433750Y-102508100D02*
X141566521Y-101640871D01*
%TO.N,Net-(IC2-PD2)*%
X141274350Y-103143100D02*
X141502950Y-103371700D01*
X141502950Y-103371700D02*
X142899950Y-103371700D01*
X142899950Y-103371700D02*
X143310350Y-103782100D01*
X143179350Y-103778100D02*
X143310350Y-103782100D01*
%TO.N,Net-(IC2-PD3)*%
D21*
X142565250Y-104307000D02*
X142424100Y-104165850D01*
X141722550Y-105048100D02*
X141147350Y-105048100D01*
X142424100Y-104165850D02*
X142424100Y-104346550D01*
X142424100Y-104346550D02*
X141722550Y-105048100D01*
%TO.N,Net-(IC2-PB6)*%
D20*
X142036350Y-107461100D02*
X141274350Y-106953100D01*
%TO.N,Net-(IC2-PB7)*%
X141147350Y-108858100D02*
X141909350Y-108858100D01*
X141909350Y-108858100D02*
X141909350Y-108731100D01*
%TO.N,/UP*%
X144576350Y-106953100D02*
X144576350Y-107594850D01*
X141662100Y-110509100D02*
X141147350Y-110509100D01*
X144576350Y-107594850D02*
X141662100Y-110509100D01*
%TO.N,VCC*%
D21*
X153812950Y-94329300D02*
X145634150Y-94329300D01*
D23*
X141300000Y-98063100D02*
X141392350Y-98063100D01*
X141392350Y-98063100D02*
X143297350Y-96158100D01*
D21*
X156133350Y-110255100D02*
X156759350Y-109629100D01*
X145634150Y-94329300D02*
X143814350Y-96149100D01*
X156759350Y-109629100D02*
X156759350Y-97275700D01*
X143814350Y-96149100D02*
X143814350Y-96158100D01*
D23*
X143297350Y-96158100D02*
X143814350Y-96158100D01*
D21*
X156759350Y-97275700D02*
X153812950Y-94329300D01*
%TD*%
%TA.AperFunction,Conductor*%
%TO.N,GND*%
G36*
X153695601Y-94675106D02*
G01*
X156413544Y-97393049D01*
X156431850Y-97437243D01*
X156431850Y-109467556D01*
X156418278Y-109500323D01*
X156413544Y-109511750D01*
X156413544Y-109511751D01*
X156348186Y-109577108D01*
X156303992Y-109595413D01*
X156291799Y-109594212D01*
X156200237Y-109576000D01*
X156200236Y-109576000D01*
X156066464Y-109576000D01*
X155935263Y-109602097D01*
X155935256Y-109602099D01*
X155811674Y-109653289D01*
X155811672Y-109653290D01*
X155700449Y-109727607D01*
X155605857Y-109822199D01*
X155531540Y-109933422D01*
X155531539Y-109933424D01*
X155480349Y-110057006D01*
X155480347Y-110057013D01*
X155454250Y-110188213D01*
X155454250Y-110321986D01*
X155480347Y-110453186D01*
X155480349Y-110453193D01*
X155531539Y-110576775D01*
X155531540Y-110576777D01*
X155597551Y-110675569D01*
X155605858Y-110688001D01*
X155700449Y-110782592D01*
X155811675Y-110856911D01*
X155878093Y-110884422D01*
X155935256Y-110908100D01*
X155935258Y-110908100D01*
X155935264Y-110908103D01*
X156066464Y-110934200D01*
X156200236Y-110934200D01*
X156331436Y-110908103D01*
X156455025Y-110856911D01*
X156566251Y-110782592D01*
X156660842Y-110688001D01*
X156735161Y-110576775D01*
X156786353Y-110453186D01*
X156812450Y-110321986D01*
X156812450Y-110188214D01*
X156794236Y-110096648D01*
X156803568Y-110049733D01*
X156811335Y-110040268D01*
X157021415Y-109830190D01*
X157064531Y-109755510D01*
X157081120Y-109693599D01*
X157086849Y-109672221D01*
X157086850Y-109672215D01*
X157086850Y-97232584D01*
X157086849Y-97232578D01*
X157074989Y-97188319D01*
X157064531Y-97149290D01*
X157021415Y-97074610D01*
X156960440Y-97013635D01*
X156816101Y-96869296D01*
X156797795Y-96825102D01*
X156816101Y-96780908D01*
X156860295Y-96762602D01*
X156876472Y-96764732D01*
X156914561Y-96774938D01*
X157155062Y-96806600D01*
X157188350Y-96806600D01*
X157232544Y-96824906D01*
X157250850Y-96869100D01*
X157250850Y-108000001D01*
X157250845Y-108132759D01*
X157285492Y-108396005D01*
X157354207Y-108652483D01*
X157354207Y-108652484D01*
X157455810Y-108897789D01*
X157455815Y-108897798D01*
X157588563Y-109127734D01*
X157588570Y-109127745D01*
X157750182Y-109338365D01*
X157750205Y-109338394D01*
X157937956Y-109526145D01*
X157937959Y-109526147D01*
X157937961Y-109526149D01*
X158105549Y-109654742D01*
X158148608Y-109687782D01*
X158378557Y-109820538D01*
X158623867Y-109922143D01*
X158880342Y-109990857D01*
X159143591Y-110025505D01*
X159276351Y-110025500D01*
X162505115Y-110025500D01*
X162511356Y-110025500D01*
X162515444Y-110025634D01*
X162767036Y-110042124D01*
X162775140Y-110043190D01*
X163020431Y-110091982D01*
X163028306Y-110094092D01*
X163239139Y-110165659D01*
X163265126Y-110174481D01*
X163272680Y-110177609D01*
X163409924Y-110245291D01*
X163496978Y-110288221D01*
X163504058Y-110292309D01*
X163711994Y-110431247D01*
X163718479Y-110436223D01*
X163906510Y-110601122D01*
X163912277Y-110606889D01*
X163992844Y-110698758D01*
X164077175Y-110794919D01*
X164082152Y-110801405D01*
X164221090Y-111009341D01*
X164225178Y-111016421D01*
X164335790Y-111240720D01*
X164338918Y-111248273D01*
X164419304Y-111485082D01*
X164421420Y-111492979D01*
X164470208Y-111738258D01*
X164471275Y-111746363D01*
X164487766Y-111997955D01*
X164487900Y-112002043D01*
X164487900Y-119104100D01*
X164469594Y-119148294D01*
X164425400Y-119166600D01*
X133345300Y-119166600D01*
X133301106Y-119148294D01*
X133282800Y-119104100D01*
X133282800Y-114027923D01*
X133701208Y-114027923D01*
X133701208Y-114356276D01*
X133701209Y-114356294D01*
X133741559Y-114682156D01*
X133821650Y-115000596D01*
X133821651Y-115000600D01*
X133821653Y-115000607D01*
X133821654Y-115000608D01*
X133841344Y-115051433D01*
X133940275Y-115306805D01*
X134095617Y-115596088D01*
X134095624Y-115596100D01*
X134285337Y-115864100D01*
X134285338Y-115864101D01*
X134285342Y-115864106D01*
X134506561Y-116106771D01*
X134686706Y-116261110D01*
X134755927Y-116320415D01*
X135029640Y-116501784D01*
X135029643Y-116501785D01*
X135029650Y-116501790D01*
X135323591Y-116648155D01*
X135633291Y-116757289D01*
X135954054Y-116827537D01*
X135954061Y-116827537D01*
X135954063Y-116827538D01*
X136076317Y-116838866D01*
X136281020Y-116857835D01*
X136281022Y-116857834D01*
X136281023Y-116857835D01*
X136404098Y-116854043D01*
X136609230Y-116847723D01*
X136609234Y-116847722D01*
X136609239Y-116847722D01*
X136835145Y-116812654D01*
X136933710Y-116797354D01*
X137249540Y-116707493D01*
X137551934Y-116579500D01*
X137836307Y-116415318D01*
X138098349Y-116217433D01*
X138334087Y-115988846D01*
X138386972Y-115923125D01*
X138539942Y-115733030D01*
X138539944Y-115733026D01*
X138539947Y-115733023D01*
X138712810Y-115453841D01*
X138850053Y-115155532D01*
X138859219Y-115126720D01*
X143808050Y-115126720D01*
X143808050Y-115797483D01*
X143819681Y-115855961D01*
X143819682Y-115855963D01*
X143852808Y-115905539D01*
X144327109Y-116379840D01*
X144376688Y-116412967D01*
X144435171Y-116424600D01*
X144790962Y-116424600D01*
X144835156Y-116442906D01*
X144842965Y-116452431D01*
X145312889Y-117157319D01*
X145312890Y-117157319D01*
X145314003Y-117158989D01*
X145330285Y-117187190D01*
X145337841Y-117194746D01*
X145341275Y-117199896D01*
X145343770Y-117203639D01*
X145343771Y-117203640D01*
X145366717Y-117223805D01*
X145369653Y-117226558D01*
X145391260Y-117248165D01*
X145400519Y-117253510D01*
X145408544Y-117260563D01*
X145437730Y-117274994D01*
X145439476Y-117276002D01*
X145465936Y-117291279D01*
X145465937Y-117291279D01*
X145465940Y-117291281D01*
X145476262Y-117294047D01*
X145485843Y-117298784D01*
X145517778Y-117305171D01*
X145549234Y-117313600D01*
X145559920Y-117313600D01*
X145570400Y-117315696D01*
X145602899Y-117313600D01*
X153194634Y-117313600D01*
X153280866Y-117313600D01*
X153280871Y-117313599D01*
X153310382Y-117305691D01*
X153364160Y-117291281D01*
X153438840Y-117248165D01*
X154351215Y-116335790D01*
X154394331Y-116261110D01*
X154416650Y-116177816D01*
X154416650Y-116091584D01*
X154416650Y-115186843D01*
X154434956Y-115142649D01*
X155549682Y-114027923D01*
X158745608Y-114027923D01*
X158745608Y-114356276D01*
X158745609Y-114356294D01*
X158785959Y-114682156D01*
X158866050Y-115000596D01*
X158866051Y-115000600D01*
X158866053Y-115000607D01*
X158866054Y-115000608D01*
X158885744Y-115051433D01*
X158984675Y-115306805D01*
X159140017Y-115596088D01*
X159140024Y-115596100D01*
X159329737Y-115864100D01*
X159329738Y-115864101D01*
X159329742Y-115864106D01*
X159550961Y-116106771D01*
X159731106Y-116261110D01*
X159800327Y-116320415D01*
X160074040Y-116501784D01*
X160074043Y-116501785D01*
X160074050Y-116501790D01*
X160367991Y-116648155D01*
X160677691Y-116757289D01*
X160998454Y-116827537D01*
X160998461Y-116827537D01*
X160998463Y-116827538D01*
X161120717Y-116838866D01*
X161325420Y-116857835D01*
X161325422Y-116857834D01*
X161325423Y-116857835D01*
X161448498Y-116854043D01*
X161653630Y-116847723D01*
X161653634Y-116847722D01*
X161653639Y-116847722D01*
X161879545Y-116812654D01*
X161978110Y-116797354D01*
X162293940Y-116707493D01*
X162596334Y-116579500D01*
X162880707Y-116415318D01*
X163142749Y-116217433D01*
X163378487Y-115988846D01*
X163431372Y-115923125D01*
X163584342Y-115733030D01*
X163584344Y-115733026D01*
X163584347Y-115733023D01*
X163757210Y-115453841D01*
X163894453Y-115155532D01*
X163993998Y-114842618D01*
X164054335Y-114519843D01*
X164074550Y-114192100D01*
X164054335Y-113864357D01*
X163993998Y-113541582D01*
X163894453Y-113228668D01*
X163824856Y-113077394D01*
X163757212Y-112930363D01*
X163669129Y-112788105D01*
X163584347Y-112651177D01*
X163584346Y-112651176D01*
X163584342Y-112651169D01*
X163378490Y-112395357D01*
X163378475Y-112395342D01*
X163142760Y-112166777D01*
X163142753Y-112166771D01*
X163142749Y-112166767D01*
X163006378Y-112063784D01*
X162880708Y-111968882D01*
X162704660Y-111867242D01*
X162596334Y-111804700D01*
X162293940Y-111676707D01*
X162293936Y-111676705D01*
X162293934Y-111676705D01*
X161978117Y-111586848D01*
X161978110Y-111586846D01*
X161978105Y-111586845D01*
X161978096Y-111586843D01*
X161653639Y-111536477D01*
X161653625Y-111536476D01*
X161325426Y-111526364D01*
X161325420Y-111526364D01*
X160998463Y-111556661D01*
X160998453Y-111556663D01*
X160677698Y-111626909D01*
X160677681Y-111626914D01*
X160367993Y-111736044D01*
X160367991Y-111736045D01*
X160104512Y-111867242D01*
X160074040Y-111882415D01*
X159800327Y-112063784D01*
X159550958Y-112277431D01*
X159329738Y-112520098D01*
X159329737Y-112520099D01*
X159140024Y-112788099D01*
X159140017Y-112788111D01*
X158984675Y-113077394D01*
X158866051Y-113383599D01*
X158866050Y-113383603D01*
X158785959Y-113702043D01*
X158745609Y-114027905D01*
X158745608Y-114027923D01*
X155549682Y-114027923D01*
X155595808Y-113981797D01*
X155638038Y-113939567D01*
X155722815Y-113854790D01*
X155765931Y-113780110D01*
X155781618Y-113721565D01*
X155788249Y-113696821D01*
X155788250Y-113696815D01*
X155788250Y-112427904D01*
X155788249Y-112427898D01*
X155771984Y-112367201D01*
X155765931Y-112344610D01*
X155722815Y-112269930D01*
X155661840Y-112208955D01*
X151461775Y-108008890D01*
X151443469Y-107964696D01*
X151445598Y-107948524D01*
X151455450Y-107911757D01*
X151455450Y-107772443D01*
X151451640Y-107758223D01*
X151457883Y-107710797D01*
X151495833Y-107681676D01*
X151539777Y-107686053D01*
X151652532Y-107741975D01*
X151828892Y-107785833D01*
X151869695Y-107788600D01*
X152015004Y-107788599D01*
X152055808Y-107785833D01*
X152232168Y-107741975D01*
X152394977Y-107661229D01*
X152536622Y-107547372D01*
X152650479Y-107405727D01*
X152731225Y-107242918D01*
X152775083Y-107066558D01*
X152777850Y-107025755D01*
X152777849Y-106880446D01*
X152775083Y-106839642D01*
X152731225Y-106663282D01*
X152650479Y-106500473D01*
X152645724Y-106494558D01*
X152617990Y-106460055D01*
X152536622Y-106358828D01*
X152424031Y-106268325D01*
X152394980Y-106244973D01*
X152394979Y-106244972D01*
X152232169Y-106164225D01*
X152166824Y-106147975D01*
X152073442Y-106124752D01*
X152034973Y-106096322D01*
X152027873Y-106049017D01*
X152056304Y-106010547D01*
X152073440Y-106003448D01*
X152232168Y-105963975D01*
X152394977Y-105883229D01*
X152536622Y-105769372D01*
X152650479Y-105627727D01*
X152731225Y-105464918D01*
X152775083Y-105288558D01*
X152777850Y-105247755D01*
X152777849Y-105102446D01*
X152775083Y-105061642D01*
X152731225Y-104885282D01*
X152650479Y-104722473D01*
X152633452Y-104701291D01*
X152601885Y-104662019D01*
X152536622Y-104580828D01*
X152394977Y-104466971D01*
X152271216Y-104405591D01*
X152239759Y-104369556D01*
X152242995Y-104321830D01*
X152271216Y-104293608D01*
X152394977Y-104232229D01*
X152536622Y-104118372D01*
X152650479Y-103976727D01*
X152731225Y-103813918D01*
X152775083Y-103637558D01*
X152777850Y-103596755D01*
X152777849Y-103451446D01*
X152775083Y-103410642D01*
X152731225Y-103234282D01*
X152650479Y-103071473D01*
X152649653Y-103070446D01*
X152587018Y-102992524D01*
X152536622Y-102929828D01*
X152431822Y-102845588D01*
X152394980Y-102815973D01*
X152394979Y-102815972D01*
X152304580Y-102771137D01*
X152273121Y-102735100D01*
X152269850Y-102715145D01*
X152269850Y-102677184D01*
X152269849Y-102677178D01*
X152257989Y-102632919D01*
X152247531Y-102593890D01*
X152204415Y-102519210D01*
X152143440Y-102458235D01*
X150972340Y-101287135D01*
X150897660Y-101244019D01*
X150897659Y-101244018D01*
X150897658Y-101244018D01*
X150814371Y-101221700D01*
X150814366Y-101221700D01*
X150287100Y-101221700D01*
X150242906Y-101203394D01*
X150235230Y-101195718D01*
X150235226Y-101195715D01*
X150235225Y-101195714D01*
X150117908Y-101127981D01*
X150088789Y-101090031D01*
X150095032Y-101042605D01*
X150106026Y-101030081D01*
X150105328Y-101029383D01*
X150118017Y-101016694D01*
X150206736Y-100927975D01*
X150217431Y-100909451D01*
X150255381Y-100880330D01*
X150271558Y-100878200D01*
X151107408Y-100878200D01*
X151151602Y-100896506D01*
X151163400Y-100912930D01*
X151234222Y-101055729D01*
X151234223Y-101055730D01*
X151348078Y-101197372D01*
X151406110Y-101244019D01*
X151489719Y-101311226D01*
X151489720Y-101311227D01*
X151489721Y-101311227D01*
X151489723Y-101311229D01*
X151652532Y-101391975D01*
X151828892Y-101435833D01*
X151869695Y-101438600D01*
X152015004Y-101438599D01*
X152055808Y-101435833D01*
X152232168Y-101391975D01*
X152394977Y-101311229D01*
X152536622Y-101197372D01*
X152650479Y-101055727D01*
X152731225Y-100892918D01*
X152775083Y-100716558D01*
X152777850Y-100675755D01*
X152777849Y-100530446D01*
X152775083Y-100489642D01*
X152731225Y-100313282D01*
X152650479Y-100150473D01*
X152536622Y-100008828D01*
X152394977Y-99894971D01*
X152271216Y-99833591D01*
X152239759Y-99797556D01*
X152242995Y-99749830D01*
X152271216Y-99721608D01*
X152394977Y-99660229D01*
X152536622Y-99546372D01*
X152650479Y-99404727D01*
X152731225Y-99241918D01*
X152775083Y-99065558D01*
X152777850Y-99024755D01*
X152777849Y-98879446D01*
X152775083Y-98838642D01*
X152731225Y-98662282D01*
X152650479Y-98499473D01*
X152536622Y-98357828D01*
X152442935Y-98282521D01*
X152394980Y-98243973D01*
X152394979Y-98243972D01*
X152232169Y-98163225D01*
X152055805Y-98119366D01*
X152030235Y-98117632D01*
X152015005Y-98116600D01*
X152014998Y-98116600D01*
X151869708Y-98116600D01*
X151869696Y-98116601D01*
X151828898Y-98119366D01*
X151828890Y-98119367D01*
X151652530Y-98163225D01*
X151489720Y-98243972D01*
X151489719Y-98243973D01*
X151348078Y-98357828D01*
X151234223Y-98499469D01*
X151234222Y-98499470D01*
X151153475Y-98662280D01*
X151109616Y-98838644D01*
X151106850Y-98879447D01*
X151106850Y-99024741D01*
X151106851Y-99024753D01*
X151109616Y-99065551D01*
X151109617Y-99065559D01*
X151147792Y-99219067D01*
X151140692Y-99266373D01*
X151131333Y-99278344D01*
X151014384Y-99395294D01*
X150970192Y-99413600D01*
X149743807Y-99413600D01*
X149667388Y-99434078D01*
X149667386Y-99434078D01*
X149598862Y-99473641D01*
X149016284Y-100056218D01*
X148972090Y-100074524D01*
X148964082Y-100074000D01*
X148964007Y-100074000D01*
X148824693Y-100074000D01*
X148824692Y-100074000D01*
X148824686Y-100074001D01*
X148690128Y-100110055D01*
X148690125Y-100110056D01*
X148569473Y-100179715D01*
X148569469Y-100179718D01*
X148470968Y-100278219D01*
X148470965Y-100278223D01*
X148401306Y-100398875D01*
X148401305Y-100398878D01*
X148365251Y-100533436D01*
X148365250Y-100533444D01*
X148365250Y-100672755D01*
X148365251Y-100672763D01*
X148401305Y-100807321D01*
X148401306Y-100807324D01*
X148436135Y-100867650D01*
X148470963Y-100927974D01*
X148470965Y-100927976D01*
X148470968Y-100927980D01*
X148569469Y-101026481D01*
X148569473Y-101026484D01*
X148569475Y-101026486D01*
X148672666Y-101086063D01*
X148690125Y-101096143D01*
X148690128Y-101096144D01*
X148729196Y-101106612D01*
X148824693Y-101132200D01*
X148824694Y-101132200D01*
X148964006Y-101132200D01*
X148964007Y-101132200D01*
X149098575Y-101096143D01*
X149219225Y-101026486D01*
X149294656Y-100951055D01*
X149338850Y-100932749D01*
X149383044Y-100951055D01*
X149458475Y-101026486D01*
X149575790Y-101094217D01*
X149604910Y-101132168D01*
X149598667Y-101179594D01*
X149587682Y-101192128D01*
X149588371Y-101192817D01*
X149486968Y-101294219D01*
X149486965Y-101294223D01*
X149417306Y-101414875D01*
X149417305Y-101414878D01*
X149381251Y-101549436D01*
X149381250Y-101549444D01*
X149381250Y-101688755D01*
X149381251Y-101688763D01*
X149417305Y-101823321D01*
X149417306Y-101823324D01*
X149486965Y-101943976D01*
X149486968Y-101943980D01*
X149585469Y-102042481D01*
X149585473Y-102042484D01*
X149585475Y-102042486D01*
X149706125Y-102112143D01*
X149706128Y-102112144D01*
X149754870Y-102125204D01*
X149840693Y-102148200D01*
X149840694Y-102148200D01*
X149953750Y-102148200D01*
X149997944Y-102166506D01*
X150016250Y-102210700D01*
X150016250Y-102323754D01*
X150016785Y-102327819D01*
X150015150Y-102328034D01*
X150009647Y-102369840D01*
X149976930Y-102426508D01*
X149976928Y-102426513D01*
X149956450Y-102502932D01*
X149956450Y-108101242D01*
X149976929Y-108177664D01*
X149976931Y-108177669D01*
X150010977Y-108236639D01*
X150010978Y-108236639D01*
X150016488Y-108246183D01*
X150016492Y-108246188D01*
X152986144Y-111215840D01*
X153004450Y-111260034D01*
X153004450Y-114437100D01*
X152986144Y-114481294D01*
X152941950Y-114499600D01*
X152664766Y-114499600D01*
X152606288Y-114511231D01*
X152606287Y-114511232D01*
X152556708Y-114544360D01*
X152082409Y-115018659D01*
X152049283Y-115068237D01*
X152049282Y-115068239D01*
X152037650Y-115126720D01*
X152037650Y-115797483D01*
X152049281Y-115855961D01*
X152049282Y-115855963D01*
X152082408Y-115905539D01*
X152556709Y-116379840D01*
X152606288Y-116412967D01*
X152664771Y-116424600D01*
X153185206Y-116424600D01*
X153229400Y-116442906D01*
X153247706Y-116487100D01*
X153229400Y-116531294D01*
X153120401Y-116640294D01*
X153076207Y-116658600D01*
X145801072Y-116658600D01*
X145756878Y-116640294D01*
X145749069Y-116630769D01*
X145603867Y-116412966D01*
X145463086Y-116201795D01*
X145453804Y-116154870D01*
X145470894Y-116122935D01*
X145688290Y-115905541D01*
X145721417Y-115855962D01*
X145733050Y-115797479D01*
X145733050Y-115126720D01*
X146551250Y-115126720D01*
X146551250Y-115797483D01*
X146562881Y-115855961D01*
X146562882Y-115855963D01*
X146596008Y-115905539D01*
X147070309Y-116379840D01*
X147119888Y-116412967D01*
X147178371Y-116424600D01*
X147849132Y-116424600D01*
X147849133Y-116424600D01*
X147907613Y-116412968D01*
X147957189Y-116379842D01*
X148431490Y-115905541D01*
X148464617Y-115855962D01*
X148476250Y-115797479D01*
X148476250Y-115126717D01*
X148464618Y-115068237D01*
X148464617Y-115068235D01*
X148464616Y-115068233D01*
X148453390Y-115051433D01*
X148444057Y-115004517D01*
X148470632Y-114964743D01*
X148517548Y-114955410D01*
X148549550Y-114972515D01*
X148561630Y-114984595D01*
X148561634Y-114984598D01*
X148561636Y-114984600D01*
X148675764Y-115050492D01*
X148675767Y-115050493D01*
X148741997Y-115068239D01*
X148803058Y-115084600D01*
X148803059Y-115084600D01*
X148934841Y-115084600D01*
X148934842Y-115084600D01*
X149062136Y-115050492D01*
X149176264Y-114984600D01*
X149269450Y-114891414D01*
X149335342Y-114777286D01*
X149369450Y-114649992D01*
X149369450Y-114518208D01*
X149335342Y-114390914D01*
X149269450Y-114276786D01*
X149269448Y-114276784D01*
X149269445Y-114276780D01*
X149187756Y-114195091D01*
X149169450Y-114150897D01*
X149169450Y-113946093D01*
X149187756Y-113901899D01*
X149219757Y-113884794D01*
X149220732Y-113884600D01*
X149220733Y-113884600D01*
X149279213Y-113872968D01*
X149328789Y-113839842D01*
X149803090Y-113365541D01*
X149836217Y-113315962D01*
X149847850Y-113257479D01*
X149847850Y-112586720D01*
X150666050Y-112586720D01*
X150666050Y-113257483D01*
X150677681Y-113315961D01*
X150677682Y-113315963D01*
X150710808Y-113365539D01*
X151185109Y-113839840D01*
X151234688Y-113872967D01*
X151293171Y-113884600D01*
X151963932Y-113884600D01*
X151963933Y-113884600D01*
X152022413Y-113872968D01*
X152071989Y-113839842D01*
X152546290Y-113365541D01*
X152579417Y-113315962D01*
X152591050Y-113257479D01*
X152591050Y-112586717D01*
X152579418Y-112528237D01*
X152546292Y-112478661D01*
X152071991Y-112004360D01*
X152071988Y-112004358D01*
X152022412Y-111971233D01*
X152022410Y-111971232D01*
X151963929Y-111959600D01*
X151293167Y-111959600D01*
X151293166Y-111959600D01*
X151234688Y-111971231D01*
X151234687Y-111971232D01*
X151185108Y-112004360D01*
X150710809Y-112478659D01*
X150677683Y-112528237D01*
X150677682Y-112528239D01*
X150666050Y-112586720D01*
X149847850Y-112586720D01*
X149847850Y-112586717D01*
X149836218Y-112528237D01*
X149803092Y-112478661D01*
X149328791Y-112004360D01*
X149328788Y-112004358D01*
X149279212Y-111971233D01*
X149279210Y-111971232D01*
X149220729Y-111959600D01*
X148549967Y-111959600D01*
X148549966Y-111959600D01*
X148491488Y-111971231D01*
X148491487Y-111971232D01*
X148441908Y-112004360D01*
X147967609Y-112478659D01*
X147934483Y-112528237D01*
X147934482Y-112528239D01*
X147922850Y-112586720D01*
X147922850Y-113257483D01*
X147934481Y-113315961D01*
X147934482Y-113315963D01*
X147967608Y-113365539D01*
X148441909Y-113839840D01*
X148491488Y-113872967D01*
X148518143Y-113878269D01*
X148557916Y-113904843D01*
X148568450Y-113939567D01*
X148568450Y-114150897D01*
X148550144Y-114195091D01*
X148468454Y-114276780D01*
X148468451Y-114276784D01*
X148402557Y-114390914D01*
X148402556Y-114390917D01*
X148368451Y-114518201D01*
X148368450Y-114518209D01*
X148368450Y-114649990D01*
X148368451Y-114649998D01*
X148402556Y-114777282D01*
X148402557Y-114777285D01*
X148455391Y-114868795D01*
X148461634Y-114916221D01*
X148432514Y-114954172D01*
X148385088Y-114960415D01*
X148357070Y-114944239D01*
X147957190Y-114544359D01*
X147907612Y-114511233D01*
X147907610Y-114511232D01*
X147849129Y-114499600D01*
X147178367Y-114499600D01*
X147178366Y-114499600D01*
X147119888Y-114511231D01*
X147119887Y-114511232D01*
X147070308Y-114544360D01*
X146596009Y-115018659D01*
X146562883Y-115068237D01*
X146562882Y-115068239D01*
X146551250Y-115126720D01*
X145733050Y-115126720D01*
X145733050Y-115126717D01*
X145721418Y-115068237D01*
X145688292Y-115018661D01*
X145213991Y-114544360D01*
X145213988Y-114544358D01*
X145164412Y-114511233D01*
X145164410Y-114511232D01*
X145105929Y-114499600D01*
X144435167Y-114499600D01*
X144435166Y-114499600D01*
X144376688Y-114511231D01*
X144376687Y-114511232D01*
X144327108Y-114544360D01*
X143852809Y-115018659D01*
X143819683Y-115068237D01*
X143819682Y-115068239D01*
X143808050Y-115126720D01*
X138859219Y-115126720D01*
X138949598Y-114842618D01*
X139009935Y-114519843D01*
X139030150Y-114192100D01*
X139009935Y-113864357D01*
X138949598Y-113541582D01*
X138850053Y-113228668D01*
X138780456Y-113077394D01*
X138712812Y-112930363D01*
X138624729Y-112788105D01*
X138539947Y-112651177D01*
X138539946Y-112651176D01*
X138539942Y-112651169D01*
X138334090Y-112395357D01*
X138334075Y-112395342D01*
X138098360Y-112166777D01*
X138098353Y-112166771D01*
X138098349Y-112166767D01*
X137961978Y-112063784D01*
X137836308Y-111968882D01*
X137660260Y-111867242D01*
X137551934Y-111804700D01*
X137249540Y-111676707D01*
X137249536Y-111676705D01*
X137249534Y-111676705D01*
X136933717Y-111586848D01*
X136933710Y-111586846D01*
X136933705Y-111586845D01*
X136933696Y-111586843D01*
X136609239Y-111536477D01*
X136609225Y-111536476D01*
X136281026Y-111526364D01*
X136281020Y-111526364D01*
X135954063Y-111556661D01*
X135954053Y-111556663D01*
X135633298Y-111626909D01*
X135633281Y-111626914D01*
X135323593Y-111736044D01*
X135323591Y-111736045D01*
X135060112Y-111867242D01*
X135029640Y-111882415D01*
X134755927Y-112063784D01*
X134506558Y-112277431D01*
X134285338Y-112520098D01*
X134285337Y-112520099D01*
X134095624Y-112788099D01*
X134095617Y-112788111D01*
X133940275Y-113077394D01*
X133821651Y-113383599D01*
X133821650Y-113383603D01*
X133741559Y-113702043D01*
X133701209Y-114027905D01*
X133701208Y-114027923D01*
X133282800Y-114027923D01*
X133282800Y-112002043D01*
X133282934Y-111997955D01*
X133284685Y-111971233D01*
X133299424Y-111746361D01*
X133300491Y-111738258D01*
X133300931Y-111736045D01*
X133349282Y-111492964D01*
X133351390Y-111485096D01*
X133431782Y-111248269D01*
X133434909Y-111240720D01*
X133438151Y-111234146D01*
X133545525Y-111016413D01*
X133549603Y-111009349D01*
X133688553Y-110801396D01*
X133693517Y-110794927D01*
X133858429Y-110606881D01*
X133864181Y-110601129D01*
X134052227Y-110436217D01*
X134058696Y-110431253D01*
X134266649Y-110292303D01*
X134273713Y-110288225D01*
X134498024Y-110177607D01*
X134505569Y-110174482D01*
X134742396Y-110094090D01*
X134750264Y-110091982D01*
X134995561Y-110043190D01*
X135003661Y-110042124D01*
X135255256Y-110025634D01*
X135259344Y-110025500D01*
X138294789Y-110025500D01*
X138294796Y-110025498D01*
X138391108Y-110025498D01*
X138654351Y-109990837D01*
X138782585Y-109956475D01*
X138910816Y-109922115D01*
X138910817Y-109922114D01*
X138910819Y-109922114D01*
X139156122Y-109820504D01*
X139386064Y-109687745D01*
X139596711Y-109526109D01*
X139784459Y-109338361D01*
X139946095Y-109127714D01*
X140078854Y-108897772D01*
X140125382Y-108785447D01*
X140311850Y-108785447D01*
X140311850Y-108930741D01*
X140311851Y-108930753D01*
X140314616Y-108971551D01*
X140314617Y-108971559D01*
X140358475Y-109147919D01*
X140439222Y-109310729D01*
X140439223Y-109310730D01*
X140461434Y-109338361D01*
X140553078Y-109452372D01*
X140644819Y-109526115D01*
X140694719Y-109566226D01*
X140694720Y-109566227D01*
X140694721Y-109566227D01*
X140694723Y-109566229D01*
X140857532Y-109646975D01*
X140914118Y-109661047D01*
X140952588Y-109689478D01*
X140959688Y-109736783D01*
X140931257Y-109775253D01*
X140914118Y-109782353D01*
X140857530Y-109796425D01*
X140694720Y-109877172D01*
X140694719Y-109877173D01*
X140553078Y-109991028D01*
X140439223Y-110132669D01*
X140439222Y-110132670D01*
X140358475Y-110295480D01*
X140314616Y-110471844D01*
X140311850Y-110512647D01*
X140311850Y-110657941D01*
X140311851Y-110657953D01*
X140314616Y-110698751D01*
X140314617Y-110698759D01*
X140358475Y-110875119D01*
X140439222Y-111037929D01*
X140439223Y-111037930D01*
X140553078Y-111179572D01*
X140653178Y-111260034D01*
X140694719Y-111293426D01*
X140694720Y-111293427D01*
X140694721Y-111293427D01*
X140694723Y-111293429D01*
X140857532Y-111374175D01*
X141033892Y-111418033D01*
X141074695Y-111420800D01*
X141220004Y-111420799D01*
X141260808Y-111418033D01*
X141437168Y-111374175D01*
X141442246Y-111371656D01*
X141446472Y-111369561D01*
X141494198Y-111366323D01*
X141518437Y-111381358D01*
X142504280Y-112367201D01*
X142522586Y-112411395D01*
X142504280Y-112455589D01*
X142481211Y-112478657D01*
X142481209Y-112478659D01*
X142448083Y-112528237D01*
X142448082Y-112528239D01*
X142436450Y-112586720D01*
X142436450Y-113257483D01*
X142448081Y-113315961D01*
X142448082Y-113315963D01*
X142481208Y-113365539D01*
X142955509Y-113839840D01*
X143005088Y-113872967D01*
X143063571Y-113884600D01*
X143734332Y-113884600D01*
X143734333Y-113884600D01*
X143792813Y-113872968D01*
X143842389Y-113839842D01*
X144316690Y-113365541D01*
X144349817Y-113315962D01*
X144361450Y-113257479D01*
X144361450Y-112586720D01*
X145179650Y-112586720D01*
X145179650Y-113257483D01*
X145191281Y-113315961D01*
X145191282Y-113315963D01*
X145224408Y-113365539D01*
X145698709Y-113839840D01*
X145748288Y-113872967D01*
X145806771Y-113884600D01*
X146477532Y-113884600D01*
X146477533Y-113884600D01*
X146536013Y-113872968D01*
X146585589Y-113839842D01*
X147059890Y-113365541D01*
X147093017Y-113315962D01*
X147104650Y-113257479D01*
X147104650Y-112586717D01*
X147093018Y-112528237D01*
X147059892Y-112478661D01*
X146585591Y-112004360D01*
X146585588Y-112004358D01*
X146536012Y-111971233D01*
X146536010Y-111971232D01*
X146477529Y-111959600D01*
X145806767Y-111959600D01*
X145806766Y-111959600D01*
X145748288Y-111971231D01*
X145748287Y-111971232D01*
X145698708Y-112004360D01*
X145224409Y-112478659D01*
X145191283Y-112528237D01*
X145191282Y-112528239D01*
X145179650Y-112586720D01*
X144361450Y-112586720D01*
X144361450Y-112586717D01*
X144349818Y-112528237D01*
X144316692Y-112478661D01*
X143842391Y-112004360D01*
X143842388Y-112004358D01*
X143792812Y-111971233D01*
X143792810Y-111971232D01*
X143734329Y-111959600D01*
X143063567Y-111959600D01*
X143063566Y-111959600D01*
X143031938Y-111965891D01*
X143005087Y-111971232D01*
X143005086Y-111971232D01*
X142999050Y-111972433D01*
X142998373Y-111969029D01*
X142962413Y-111968841D01*
X142942440Y-111955419D01*
X141943408Y-110956387D01*
X141925102Y-110912193D01*
X141931611Y-110884422D01*
X141933706Y-110880196D01*
X141936225Y-110875118D01*
X141980083Y-110698758D01*
X141982850Y-110657955D01*
X141982849Y-110639209D01*
X142001152Y-110595017D01*
X144816810Y-107779361D01*
X144825954Y-107763523D01*
X144856371Y-107710839D01*
X144876850Y-107634412D01*
X144876850Y-107426011D01*
X144895156Y-107381817D01*
X144901155Y-107376555D01*
X144901222Y-107376487D01*
X144901225Y-107376486D01*
X144999736Y-107277975D01*
X145069393Y-107157325D01*
X145105450Y-107022757D01*
X145105450Y-106883443D01*
X145069393Y-106748875D01*
X144999736Y-106628225D01*
X144999734Y-106628223D01*
X144999731Y-106628219D01*
X144901230Y-106529718D01*
X144901226Y-106529715D01*
X144901225Y-106529714D01*
X144828084Y-106487486D01*
X144780574Y-106460056D01*
X144780571Y-106460055D01*
X144646013Y-106424001D01*
X144646008Y-106424000D01*
X144646007Y-106424000D01*
X144506693Y-106424000D01*
X144506692Y-106424000D01*
X144506686Y-106424001D01*
X144372128Y-106460055D01*
X144372125Y-106460056D01*
X144251473Y-106529715D01*
X144251469Y-106529718D01*
X144152968Y-106628219D01*
X144152965Y-106628223D01*
X144083306Y-106748875D01*
X144083305Y-106748878D01*
X144047251Y-106883436D01*
X144047250Y-106883444D01*
X144047250Y-107022755D01*
X144047251Y-107022763D01*
X144083305Y-107157321D01*
X144083306Y-107157324D01*
X144083307Y-107157325D01*
X144132724Y-107242919D01*
X144152965Y-107277976D01*
X144152968Y-107277980D01*
X144254372Y-107379383D01*
X144253579Y-107380175D01*
X144257544Y-107381817D01*
X144265249Y-107400419D01*
X144275315Y-107417854D01*
X144275850Y-107426011D01*
X144275850Y-107444490D01*
X144257544Y-107488684D01*
X141788797Y-109957430D01*
X141744603Y-109975736D01*
X141705446Y-109961949D01*
X141599980Y-109877173D01*
X141599979Y-109877172D01*
X141437169Y-109796425D01*
X141411994Y-109790164D01*
X141380580Y-109782352D01*
X141342111Y-109753923D01*
X141335011Y-109706617D01*
X141363441Y-109668147D01*
X141380579Y-109661047D01*
X141437168Y-109646975D01*
X141599977Y-109566229D01*
X141741622Y-109452372D01*
X141776574Y-109408888D01*
X141818529Y-109385911D01*
X141835555Y-109387220D01*
X141835629Y-109386665D01*
X141839692Y-109387199D01*
X141839693Y-109387200D01*
X141839694Y-109387200D01*
X141979006Y-109387200D01*
X141979007Y-109387200D01*
X142113575Y-109351143D01*
X142234225Y-109281486D01*
X142332736Y-109182975D01*
X142402393Y-109062325D01*
X142438450Y-108927757D01*
X142438450Y-108788443D01*
X142402393Y-108653875D01*
X142332736Y-108533225D01*
X142332734Y-108533223D01*
X142332731Y-108533219D01*
X142234230Y-108434718D01*
X142234226Y-108434715D01*
X142234225Y-108434714D01*
X142167172Y-108396001D01*
X142113574Y-108365056D01*
X142113571Y-108365055D01*
X141979013Y-108329001D01*
X141979008Y-108329000D01*
X141979007Y-108329000D01*
X141839693Y-108329000D01*
X141839690Y-108329000D01*
X141835631Y-108329535D01*
X141835393Y-108327732D01*
X141794015Y-108322267D01*
X141776575Y-108307311D01*
X141741622Y-108263828D01*
X141599980Y-108149973D01*
X141599979Y-108149972D01*
X141437169Y-108069225D01*
X141260805Y-108025366D01*
X141235235Y-108023632D01*
X141220005Y-108022600D01*
X141219998Y-108022600D01*
X141074708Y-108022600D01*
X141074696Y-108022601D01*
X141033898Y-108025366D01*
X141033890Y-108025367D01*
X140857530Y-108069225D01*
X140694720Y-108149972D01*
X140694719Y-108149973D01*
X140553078Y-108263828D01*
X140439223Y-108405469D01*
X140439222Y-108405470D01*
X140358475Y-108568280D01*
X140314616Y-108744644D01*
X140311850Y-108785447D01*
X140125382Y-108785447D01*
X140180464Y-108652469D01*
X140200398Y-108578079D01*
X140249186Y-108396004D01*
X140249187Y-108396001D01*
X140283848Y-108132758D01*
X140283850Y-108000000D01*
X140283850Y-107991715D01*
X140283850Y-107359136D01*
X140302156Y-107314942D01*
X140346350Y-107296636D01*
X140390544Y-107314942D01*
X140402339Y-107331362D01*
X140439221Y-107405727D01*
X140439223Y-107405729D01*
X140439223Y-107405730D01*
X140470379Y-107444490D01*
X140553078Y-107547372D01*
X140661360Y-107634411D01*
X140694719Y-107661226D01*
X140694720Y-107661227D01*
X140694721Y-107661227D01*
X140694723Y-107661229D01*
X140857532Y-107741975D01*
X141033892Y-107785833D01*
X141074695Y-107788600D01*
X141220004Y-107788599D01*
X141260808Y-107785833D01*
X141437168Y-107741975D01*
X141501522Y-107710057D01*
X141549247Y-107706821D01*
X141583417Y-107734800D01*
X141612961Y-107785971D01*
X141612968Y-107785980D01*
X141711469Y-107884481D01*
X141711473Y-107884484D01*
X141711475Y-107884486D01*
X141822382Y-107948518D01*
X141832125Y-107954143D01*
X141832128Y-107954144D01*
X141914474Y-107976208D01*
X141966693Y-107990200D01*
X141966694Y-107990200D01*
X142106006Y-107990200D01*
X142106007Y-107990200D01*
X142240575Y-107954143D01*
X142361225Y-107884486D01*
X142459736Y-107785975D01*
X142529393Y-107665325D01*
X142565450Y-107530757D01*
X142565450Y-107391443D01*
X142529393Y-107256875D01*
X142459736Y-107136225D01*
X142459734Y-107136223D01*
X142459731Y-107136219D01*
X142361230Y-107037718D01*
X142361226Y-107037715D01*
X142361225Y-107037714D01*
X142300900Y-107002885D01*
X142240574Y-106968056D01*
X142240571Y-106968055D01*
X142106013Y-106932001D01*
X142106008Y-106932000D01*
X142106007Y-106932000D01*
X142106006Y-106932000D01*
X142044750Y-106932000D01*
X142000556Y-106913694D01*
X141982393Y-106873726D01*
X141980083Y-106839648D01*
X141980083Y-106839642D01*
X141936225Y-106663282D01*
X141855479Y-106500473D01*
X141850724Y-106494558D01*
X141822990Y-106460055D01*
X141741622Y-106358828D01*
X141629031Y-106268325D01*
X141599980Y-106244973D01*
X141599979Y-106244972D01*
X141437169Y-106164225D01*
X141260805Y-106120366D01*
X141235235Y-106118632D01*
X141220005Y-106117600D01*
X141219998Y-106117600D01*
X141074708Y-106117600D01*
X141074696Y-106117601D01*
X141033898Y-106120366D01*
X141033890Y-106120367D01*
X140857530Y-106164225D01*
X140694720Y-106244972D01*
X140694719Y-106244973D01*
X140553078Y-106358828D01*
X140439223Y-106500469D01*
X140439222Y-106500470D01*
X140439221Y-106500473D01*
X140402885Y-106573739D01*
X140402342Y-106574833D01*
X140366306Y-106606291D01*
X140318580Y-106603055D01*
X140287122Y-106567019D01*
X140283850Y-106547063D01*
X140283850Y-105454136D01*
X140302156Y-105409942D01*
X140346350Y-105391636D01*
X140390544Y-105409942D01*
X140402339Y-105426362D01*
X140439221Y-105500727D01*
X140439223Y-105500729D01*
X140439223Y-105500730D01*
X140468553Y-105537218D01*
X140553078Y-105642372D01*
X140656471Y-105725481D01*
X140694719Y-105756226D01*
X140694720Y-105756227D01*
X140694721Y-105756227D01*
X140694723Y-105756229D01*
X140857532Y-105836975D01*
X141033892Y-105880833D01*
X141074695Y-105883600D01*
X141220004Y-105883599D01*
X141260808Y-105880833D01*
X141437168Y-105836975D01*
X141599977Y-105756229D01*
X141741622Y-105642372D01*
X141855479Y-105500727D01*
X141936225Y-105337918D01*
X141945388Y-105301066D01*
X141961845Y-105271958D01*
X142392875Y-104840928D01*
X142437068Y-104822623D01*
X142453243Y-104824752D01*
X142466317Y-104828255D01*
X142495588Y-104836099D01*
X142495591Y-104836099D01*
X142495593Y-104836100D01*
X142495594Y-104836100D01*
X142619200Y-104836100D01*
X142663394Y-104854406D01*
X142681700Y-104898600D01*
X142663394Y-104942794D01*
X142628968Y-104977219D01*
X142628965Y-104977223D01*
X142559306Y-105097875D01*
X142559305Y-105097878D01*
X142523251Y-105232436D01*
X142523250Y-105232444D01*
X142523250Y-105371755D01*
X142523251Y-105371763D01*
X142559305Y-105506321D01*
X142559306Y-105506324D01*
X142559307Y-105506325D01*
X142623925Y-105618248D01*
X142628965Y-105626976D01*
X142628968Y-105626980D01*
X142727469Y-105725481D01*
X142727473Y-105725484D01*
X142727475Y-105725486D01*
X142848125Y-105795143D01*
X142848128Y-105795144D01*
X142909779Y-105811663D01*
X142982693Y-105831200D01*
X142982694Y-105831200D01*
X143122006Y-105831200D01*
X143122007Y-105831200D01*
X143256575Y-105795143D01*
X143377225Y-105725486D01*
X143448505Y-105654206D01*
X143492699Y-105635900D01*
X144370188Y-105635900D01*
X144414382Y-105654206D01*
X145327544Y-106567368D01*
X145345850Y-106611562D01*
X145345850Y-109456129D01*
X145327544Y-109500323D01*
X145172573Y-109655294D01*
X145128379Y-109673600D01*
X144429602Y-109673600D01*
X144371119Y-109685232D01*
X144371117Y-109685233D01*
X144304797Y-109729547D01*
X144260483Y-109795867D01*
X144260482Y-109795869D01*
X144248850Y-109854351D01*
X144248850Y-109854352D01*
X144248850Y-110245291D01*
X144246856Y-110278516D01*
X144248850Y-110288260D01*
X144248850Y-110909848D01*
X144260482Y-110968330D01*
X144260483Y-110968332D01*
X144304797Y-111034652D01*
X144371117Y-111078966D01*
X144371119Y-111078967D01*
X144429602Y-111090600D01*
X145485098Y-111090600D01*
X145543581Y-111078967D01*
X145609902Y-111034652D01*
X145654217Y-110968331D01*
X145657519Y-110951729D01*
X145684092Y-110911959D01*
X145731008Y-110902624D01*
X145763011Y-110919730D01*
X145933881Y-111090600D01*
X146520820Y-111090600D01*
X146935850Y-110675569D01*
X146935850Y-110088630D01*
X146520819Y-109673600D01*
X146477709Y-109673600D01*
X146433515Y-109655294D01*
X146419156Y-109640935D01*
X146400850Y-109596741D01*
X146400850Y-108845459D01*
X146419156Y-108801265D01*
X146463350Y-108782959D01*
X146507544Y-108801265D01*
X146748890Y-109042611D01*
X146804839Y-109098560D01*
X146873361Y-109138121D01*
X146896746Y-109144387D01*
X146949782Y-109158599D01*
X146949788Y-109158600D01*
X147028912Y-109158600D01*
X147981991Y-109158600D01*
X148026185Y-109176906D01*
X148448544Y-109599265D01*
X148466850Y-109643459D01*
X148466850Y-109654742D01*
X148448544Y-109698936D01*
X148058850Y-110088630D01*
X148058850Y-110088631D01*
X148058850Y-110675570D01*
X148473881Y-111090600D01*
X149060820Y-111090600D01*
X149060821Y-111090599D01*
X149134999Y-111016421D01*
X149358155Y-110793262D01*
X149402349Y-110774957D01*
X149446543Y-110793263D01*
X149605014Y-110951733D01*
X149743881Y-111090600D01*
X150330820Y-111090600D01*
X150745850Y-110675569D01*
X150745850Y-110088630D01*
X150330819Y-109673600D01*
X149743880Y-109673600D01*
X149446544Y-109970936D01*
X149402350Y-109989242D01*
X149358156Y-109970936D01*
X149086156Y-109698936D01*
X149067850Y-109654742D01*
X149067850Y-109453539D01*
X149067849Y-109453533D01*
X149061010Y-109428011D01*
X149061010Y-109428010D01*
X149047373Y-109377115D01*
X149047369Y-109377106D01*
X149007812Y-109308592D01*
X149007805Y-109308583D01*
X148316861Y-108617640D01*
X148274335Y-108593088D01*
X148274335Y-108593087D01*
X148274333Y-108593087D01*
X148248340Y-108578079D01*
X148171917Y-108557600D01*
X148171912Y-108557600D01*
X147139709Y-108557600D01*
X147095515Y-108539294D01*
X146927156Y-108370935D01*
X146908850Y-108326741D01*
X146908850Y-106157388D01*
X146908849Y-106157382D01*
X146892487Y-106096322D01*
X146888371Y-106080961D01*
X146848810Y-106012439D01*
X146792861Y-105956490D01*
X145784156Y-104947785D01*
X145765850Y-104903591D01*
X145765850Y-102436609D01*
X145784156Y-102392415D01*
X145865514Y-102311057D01*
X145959810Y-102216761D01*
X145961093Y-102214538D01*
X145999371Y-102148239D01*
X146019850Y-102071812D01*
X146019850Y-101452538D01*
X146019849Y-101452532D01*
X146003622Y-101391975D01*
X145999371Y-101376111D01*
X145959810Y-101307589D01*
X145903861Y-101251640D01*
X145668915Y-101016694D01*
X145650609Y-100972500D01*
X145668915Y-100928306D01*
X145713109Y-100910000D01*
X145829416Y-100910000D01*
X145873610Y-100928306D01*
X146628215Y-101682911D01*
X146684164Y-101738860D01*
X146752686Y-101778421D01*
X146765737Y-101781918D01*
X146829107Y-101798899D01*
X146829113Y-101798900D01*
X147403587Y-101798900D01*
X147403592Y-101798899D01*
X147426296Y-101792814D01*
X147480014Y-101778421D01*
X147548536Y-101738860D01*
X147604485Y-101682911D01*
X147985410Y-101301986D01*
X148004685Y-101268600D01*
X148024971Y-101233464D01*
X148045450Y-101157037D01*
X148045450Y-101138724D01*
X148047579Y-101122549D01*
X148051850Y-101106612D01*
X148051850Y-100695011D01*
X148070156Y-100650817D01*
X148076155Y-100645555D01*
X148076222Y-100645487D01*
X148076225Y-100645486D01*
X148174736Y-100546975D01*
X148244393Y-100426325D01*
X148280450Y-100291757D01*
X148280450Y-100152443D01*
X148259432Y-100074001D01*
X148244394Y-100017878D01*
X148244393Y-100017877D01*
X148244393Y-100017875D01*
X148174736Y-99897225D01*
X148174734Y-99897223D01*
X148174731Y-99897219D01*
X148076230Y-99798718D01*
X148076226Y-99798715D01*
X148076225Y-99798714D01*
X147976218Y-99740975D01*
X147955574Y-99729056D01*
X147955571Y-99729055D01*
X147821013Y-99693001D01*
X147821008Y-99693000D01*
X147821007Y-99693000D01*
X147681693Y-99693000D01*
X147681692Y-99693000D01*
X147681686Y-99693001D01*
X147547128Y-99729055D01*
X147547125Y-99729056D01*
X147426473Y-99798715D01*
X147426469Y-99798718D01*
X147327968Y-99897219D01*
X147327965Y-99897223D01*
X147327164Y-99898611D01*
X147260199Y-100014599D01*
X147258309Y-100017872D01*
X147258305Y-100017878D01*
X147222251Y-100152436D01*
X147222250Y-100152444D01*
X147222250Y-100265500D01*
X147203944Y-100309694D01*
X147159750Y-100328000D01*
X147046693Y-100328000D01*
X147046692Y-100328000D01*
X147046686Y-100328001D01*
X146912128Y-100364055D01*
X146912121Y-100364058D01*
X146835016Y-100408574D01*
X146787590Y-100414817D01*
X146759573Y-100398641D01*
X146329977Y-99969044D01*
X146329968Y-99969037D01*
X146306902Y-99955719D01*
X146293960Y-99945788D01*
X146285316Y-99937144D01*
X146285312Y-99937141D01*
X146285311Y-99937140D01*
X146216789Y-99897579D01*
X146216788Y-99897578D01*
X146216787Y-99897578D01*
X146140367Y-99877100D01*
X146140362Y-99877100D01*
X143519524Y-99877100D01*
X143475330Y-99858794D01*
X143090181Y-99473644D01*
X143090177Y-99473641D01*
X143090176Y-99473640D01*
X143021654Y-99434079D01*
X143021653Y-99434078D01*
X143021652Y-99434078D01*
X142945232Y-99413600D01*
X142945227Y-99413600D01*
X141969694Y-99413600D01*
X141925500Y-99395294D01*
X141913703Y-99378872D01*
X141855479Y-99261473D01*
X141741622Y-99119828D01*
X141599977Y-99005971D01*
X141476216Y-98944591D01*
X141444759Y-98908556D01*
X141447995Y-98860830D01*
X141476216Y-98832608D01*
X141599977Y-98771229D01*
X141741622Y-98657372D01*
X141855479Y-98515727D01*
X141936225Y-98352918D01*
X141980083Y-98176558D01*
X141982850Y-98135755D01*
X141982849Y-97994168D01*
X142001154Y-97949976D01*
X143350011Y-96601119D01*
X143394204Y-96582814D01*
X143438398Y-96601120D01*
X143458768Y-96621490D01*
X143458772Y-96621493D01*
X143458774Y-96621495D01*
X143590826Y-96697735D01*
X143738110Y-96737200D01*
X143738112Y-96737200D01*
X143890588Y-96737200D01*
X143890590Y-96737200D01*
X144037874Y-96697735D01*
X144169926Y-96621495D01*
X144277745Y-96513676D01*
X144353985Y-96381624D01*
X144393450Y-96234340D01*
X144393450Y-96081860D01*
X144393449Y-96081854D01*
X144392497Y-96078301D01*
X144398740Y-96030875D01*
X144408669Y-96017934D01*
X145751499Y-94675106D01*
X145795693Y-94656800D01*
X153651407Y-94656800D01*
X153695601Y-94675106D01*
G37*
%TD.AperFunction*%
%TD*%
M02*
