%TF.GenerationSoftware,KiCad,Pcbnew,10.0.2*%
%TF.CreationDate,2026-05-14T09:20:34+02:00*%
%TF.ProjectId,USB-DB9_Adapter,5553422d-4442-4395-9f41-646170746572,rev?*%
%TF.SameCoordinates,Original*%
%TF.FileFunction,Copper,L1,Top*%
%TF.FilePolarity,Positive*%
%FSLAX46Y46*%
G04 Gerber Fmt 4.6, Leading zero omitted, Abs format (unit mm)*
G04 Created by KiCad (PCBNEW 10.0.2) date 2026-05-14 09:20:34*
%MOMM*%
%LPD*%
G01*
G04 APERTURE LIST*
G04 Aperture macros list*
%AMRoundRect*
0 Rectangle with rounded corners*
0 $1 Rounding radius*
0 $2 $3 $4 $5 $6 $7 $8 $9 X,Y pos of 4 corners*
0 Add a 4 corners polygon primitive as box body*
4,1,4,$2,$3,$4,$5,$6,$7,$8,$9,$2,$3,0*
0 Add four circle primitives for the rounded corners*
1,1,$1+$1,$2,$3*
1,1,$1+$1,$4,$5*
1,1,$1+$1,$6,$7*
1,1,$1+$1,$8,$9*
0 Add four rect primitives between the rounded corners*
20,1,$1+$1,$2,$3,$4,$5,0*
20,1,$1+$1,$4,$5,$6,$7,0*
20,1,$1+$1,$6,$7,$8,$9,0*
20,1,$1+$1,$8,$9,$2,$3,0*%
%AMOutline5P*
0 Free polygon, 5 corners , with rotation*
0 The origin of the aperture is its center*
0 number of corners: always 5*
0 $1 to $10 corner X, Y*
0 $11 Rotation angle, in degrees counterclockwise*
0 create outline with 5 corners*
4,1,5,$1,$2,$3,$4,$5,$6,$7,$8,$9,$10,$1,$2,$11*%
%AMOutline6P*
0 Free polygon, 6 corners , with rotation*
0 The origin of the aperture is its center*
0 number of corners: always 6*
0 $1 to $12 corner X, Y*
0 $13 Rotation angle, in degrees counterclockwise*
0 create outline with 6 corners*
4,1,6,$1,$2,$3,$4,$5,$6,$7,$8,$9,$10,$11,$12,$1,$2,$13*%
%AMOutline7P*
0 Free polygon, 7 corners , with rotation*
0 The origin of the aperture is its center*
0 number of corners: always 7*
0 $1 to $14 corner X, Y*
0 $15 Rotation angle, in degrees counterclockwise*
0 create outline with 7 corners*
4,1,7,$1,$2,$3,$4,$5,$6,$7,$8,$9,$10,$11,$12,$13,$14,$1,$2,$15*%
%AMOutline8P*
0 Free polygon, 8 corners , with rotation*
0 The origin of the aperture is its center*
0 number of corners: always 8*
0 $1 to $16 corner X, Y*
0 $17 Rotation angle, in degrees counterclockwise*
0 create outline with 8 corners*
4,1,8,$1,$2,$3,$4,$5,$6,$7,$8,$9,$10,$11,$12,$13,$14,$15,$16,$1,$2,$17*%
G04 Aperture macros list end*
%TA.AperFunction,SMDPad,CuDef*%
%ADD10R,0.250000X0.850000*%
%TD*%
%TA.AperFunction,SMDPad,CuDef*%
%ADD11R,0.850000X0.250000*%
%TD*%
%TA.AperFunction,SMDPad,CuDef*%
%ADD12R,3.600000X3.600000*%
%TD*%
%TA.AperFunction,SMDPad,CuDef*%
%ADD13R,1.050000X1.080000*%
%TD*%
%TA.AperFunction,SMDPad,CuDef*%
%ADD14R,1.520000X0.780000*%
%TD*%
%TA.AperFunction,SMDPad,CuDef*%
%ADD15R,1.080000X1.050000*%
%TD*%
%TA.AperFunction,SMDPad,CuDef*%
%ADD16RoundRect,0.635000X-0.000010X-0.000010X0.000010X-0.000010X0.000010X0.000010X-0.000010X0.000010X0*%
%TD*%
%TA.AperFunction,SMDPad,CuDef*%
%ADD17R,0.600000X1.200000*%
%TD*%
%TA.AperFunction,ComponentPad*%
%ADD18Outline8P,-0.762000X0.315631X-0.315631X0.762000X0.315631X0.762000X0.762000X0.315631X0.762000X-0.315631X0.315631X-0.762000X-0.315631X-0.762000X-0.762000X-0.315631X0.000000*%
%TD*%
%TA.AperFunction,SMDPad,CuDef*%
%ADD19R,1.100000X1.000000*%
%TD*%
%TA.AperFunction,SMDPad,CuDef*%
%ADD20R,1.000000X1.100000*%
%TD*%
%TA.AperFunction,ComponentPad*%
%ADD21Outline8P,-0.508000X0.210420X-0.210420X0.508000X0.210420X0.508000X0.508000X0.210420X0.508000X-0.210420X0.210420X-0.508000X-0.210420X-0.508000X-0.508000X-0.210420X0.000000*%
%TD*%
%TA.AperFunction,ComponentPad*%
%ADD22R,1.016000X1.016000*%
%TD*%
%TA.AperFunction,SMDPad,CuDef*%
%ADD23R,1.500000X1.500000*%
%TD*%
%TA.AperFunction,SMDPad,CuDef*%
%ADD24R,0.780000X0.880000*%
%TD*%
%TA.AperFunction,SMDPad,CuDef*%
%ADD25R,1.200000X2.400000*%
%TD*%
%TA.AperFunction,ComponentPad*%
%ADD26C,3.000000*%
%TD*%
%TA.AperFunction,ViaPad*%
%ADD27C,0.657200*%
%TD*%
%TA.AperFunction,ViaPad*%
%ADD28C,0.757200*%
%TD*%
%TA.AperFunction,ViaPad*%
%ADD29C,0.600000*%
%TD*%
%TA.AperFunction,ViaPad*%
%ADD30C,0.957200*%
%TD*%
%TA.AperFunction,Conductor*%
%ADD31C,0.200000*%
%TD*%
%TA.AperFunction,Conductor*%
%ADD32C,0.300000*%
%TD*%
%TA.AperFunction,Conductor*%
%ADD33C,0.254000*%
%TD*%
%TA.AperFunction,Conductor*%
%ADD34C,0.609600*%
%TD*%
G04 APERTURE END LIST*
D10*
%TO.P,IC2,1,PB9_1*%
%TO.N,/BUTTON3*%
X145747350Y-106990100D03*
%TO.P,IC2,2,PC14-OSC32_IN_2*%
%TO.N,/DOWN*%
X146247350Y-106990100D03*
%TO.P,IC2,3,PC15-OSC32_OUT_3*%
%TO.N,/RIGHT*%
X146747350Y-106990100D03*
%TO.P,IC2,4,VDD/VDDA_4*%
%TO.N,/3V3*%
X147247350Y-106990100D03*
%TO.P,IC2,5,VSS/VSSA_5*%
%TO.N,GND*%
X147747350Y-106990100D03*
%TO.P,IC2,6,PF2-NRST_6*%
%TO.N,Net-(IC2-PF2-NRST)*%
X148247350Y-106990100D03*
%TO.P,IC2,7,PA0_7*%
%TO.N,Net-(IC2-PA0)*%
X148747350Y-106990100D03*
%TO.P,IC2,8,PA1_8*%
%TO.N,/BUTTON1*%
X149247350Y-106990100D03*
D11*
%TO.P,IC2,9,PA2_9*%
%TO.N,Net-(IC2-PA2)*%
X149947350Y-106290100D03*
%TO.P,IC2,10,PA3_10*%
%TO.N,Net-(IC2-PA3)*%
X149947350Y-105790100D03*
%TO.P,IC2,11,PA4_11*%
%TO.N,Net-(IC2-PA4)*%
X149947350Y-105290100D03*
%TO.P,IC2,12,PA5_12*%
%TO.N,Net-(IC2-PA5)*%
X149947350Y-104790100D03*
%TO.P,IC2,13,PA6_13*%
%TO.N,Net-(IC2-PA6)*%
X149947350Y-104290100D03*
%TO.P,IC2,14,PA7_14*%
%TO.N,Net-(IC2-PA7)*%
X149947350Y-103790100D03*
%TO.P,IC2,15,PB0_15*%
%TO.N,Net-(IC2-PB0)*%
X149947350Y-103290100D03*
%TO.P,IC2,16,PB1_16*%
%TO.N,/BUTTON2*%
X149947350Y-102790100D03*
D10*
%TO.P,IC2,17,PB15_17*%
%TO.N,Net-(IC2-PB15)*%
X149247350Y-102090100D03*
%TO.P,IC2,18,PA8_18*%
%TO.N,Net-(IC2-PA8)*%
X148747350Y-102090100D03*
%TO.P,IC2,19,PA9_19*%
%TO.N,Net-(IC2-PA9)*%
X148247350Y-102090100D03*
%TO.P,IC2,20,VDDIO2_20*%
%TO.N,/3V3*%
X147747350Y-102090100D03*
%TO.P,IC2,21,PA10_21*%
%TO.N,Net-(IC2-PA10)*%
X147247350Y-102090100D03*
%TO.P,IC2,22,PA11_[PA9]_22*%
%TO.N,Net-(IC2-PA11_[PA9])*%
X146747350Y-102090100D03*
%TO.P,IC2,23,PA12_[PA10]_23*%
%TO.N,Net-(IC2-PA12_[PA10])*%
X146247350Y-102090100D03*
%TO.P,IC2,24,PA13_24*%
%TO.N,Net-(IC2-PA13)*%
X145747350Y-102090100D03*
D11*
%TO.P,IC2,25,PA14-BOOT0_25*%
%TO.N,Net-(IC2-PA14-BOOT0)*%
X145047350Y-102790100D03*
%TO.P,IC2,26,PD0_26*%
%TO.N,/LEFT*%
X145047350Y-103290100D03*
%TO.P,IC2,27,PD1_27*%
%TO.N,Net-(IC2-PD1)*%
X145047350Y-103790100D03*
%TO.P,IC2,28,PD2_28*%
%TO.N,Net-(IC2-PD2)*%
X145047350Y-104290100D03*
%TO.P,IC2,29,PD3_29*%
%TO.N,Net-(IC2-PD3)*%
X145047350Y-104790100D03*
%TO.P,IC2,30,PB6_30*%
%TO.N,Net-(IC2-PB6)*%
X145047350Y-105290100D03*
%TO.P,IC2,31,PB7_31*%
%TO.N,Net-(IC2-PB7)*%
X145047350Y-105790100D03*
%TO.P,IC2,32,PB8_32*%
%TO.N,/UP*%
X145047350Y-106290100D03*
D12*
%TO.P,IC2,33,EP_33*%
%TO.N,GND*%
X147497350Y-104540100D03*
%TD*%
D13*
%TO.P,C1,1,1_1*%
%TO.N,Net-(C1-Pad1)*%
X154849350Y-97555100D03*
%TO.P,C1,2,2_2*%
%TO.N,GND*%
X153099350Y-97555100D03*
%TD*%
%TO.P,C2,1,1_1*%
%TO.N,/3V3*%
X146749350Y-108985100D03*
%TO.P,C2,2,2_2*%
%TO.N,GND*%
X148499350Y-108985100D03*
%TD*%
D14*
%TO.P,D2,A,A_A*%
%TO.N,Net-(D2-PadA)*%
X154228350Y-106073100D03*
%TO.P,D2,C,C_C*%
%TO.N,GND*%
X154228350Y-107853100D03*
%TD*%
%TO.P,D3,A,A_A*%
%TO.N,Net-(D3-PadA)*%
X156260350Y-100594100D03*
%TO.P,D3,C,C_C*%
%TO.N,GND*%
X156260350Y-98814100D03*
%TD*%
%TO.P,D1,A,A_A*%
%TO.N,Net-(D1-PadA)*%
X152196350Y-106073100D03*
%TO.P,D1,C,C_C*%
%TO.N,GND*%
X152196350Y-107853100D03*
%TD*%
D15*
%TO.P,C4,1,1_1*%
%TO.N,VCC*%
X145719350Y-96934100D03*
%TO.P,C4,2,2_2*%
%TO.N,GND*%
X145719350Y-98684100D03*
%TD*%
D16*
%TO.P,TP14,TP,TP_TP*%
%TO.N,Net-(IC2-PA0)*%
X151942350Y-109366100D03*
%TD*%
D17*
%TO.P,VD1,1,I/O_1_1*%
%TO.N,Net-(IC2-PA11_[PA9])*%
X147817350Y-99093100D03*
%TO.P,VD1,2,GND_2*%
%TO.N,GND*%
X148767350Y-99093100D03*
%TO.P,VD1,3,I/O_2_3*%
%TO.N,Net-(IC2-PA12_[PA10])*%
X149717350Y-99093100D03*
%TO.P,VD1,4,I/O2_4*%
%TO.N,Net-(VD1-I{slash}O2)*%
X149717350Y-96793100D03*
%TO.P,VD1,5,VBUS_5*%
%TO.N,VCC*%
X148767350Y-96793100D03*
%TO.P,VD1,6,I/O1_6*%
%TO.N,Net-(VD1-I{slash}O1)*%
X147817350Y-96793100D03*
%TD*%
D18*
%TO.P,X4,1,1_1*%
%TO.N,/UP*%
X143398950Y-112922100D03*
%TO.P,X4,2,2_2*%
%TO.N,/DOWN*%
X146142150Y-112922100D03*
%TO.P,X4,3,3_3*%
%TO.N,/LEFT*%
X148885350Y-112922100D03*
%TO.P,X4,4,4_4*%
%TO.N,/RIGHT*%
X151628550Y-112922100D03*
%TO.P,X4,5,5_5*%
%TO.N,/BUTTON3*%
X154371750Y-112922100D03*
%TO.P,X4,6,6_6*%
%TO.N,/BUTTON1*%
X144770550Y-115462100D03*
%TO.P,X4,7,7_7*%
%TO.N,VCC*%
X147513750Y-115462100D03*
%TO.P,X4,8,8_8*%
%TO.N,GND*%
X150256950Y-115462100D03*
%TO.P,X4,9,9_9*%
%TO.N,/BUTTON2*%
X153000150Y-115462100D03*
%TD*%
D19*
%TO.P,R15,1,1_1*%
%TO.N,Net-(IC2-PA6)*%
X154736350Y-103055100D03*
%TO.P,R15,2,2_2*%
%TO.N,Net-(D2-PadA)*%
X154736350Y-104755100D03*
%TD*%
%TO.P,R29,1,1_1*%
%TO.N,Net-(IC2-PA4)*%
X156387350Y-103055100D03*
%TO.P,R29,2,2_2*%
%TO.N,Net-(D4-PadA)*%
X156387350Y-104755100D03*
%TD*%
%TO.P,R14,1,1_1*%
%TO.N,Net-(IC2-PA5)*%
X153085350Y-103055100D03*
%TO.P,R14,2,2_2*%
%TO.N,Net-(D1-PadA)*%
X153085350Y-104755100D03*
%TD*%
D20*
%TO.P,R41,1,1_1*%
%TO.N,Net-(IC2-PB0)*%
X150838350Y-100677494D03*
%TO.P,R41,2,2_2*%
%TO.N,Net-(D5-PadA)*%
X152538350Y-100677494D03*
%TD*%
D21*
%TO.P,X7,GND,>NAME_GND*%
%TO.N,GND*%
X147497350Y-110382100D03*
%TO.P,X7,NRST,>NAME_NRST*%
%TO.N,Net-(IC2-PF2-NRST)*%
X150037350Y-110382100D03*
%TO.P,X7,SWDCLK,>NAME_SWDCLK*%
%TO.N,Net-(IC2-PA14-BOOT0)*%
X148767350Y-110382100D03*
%TO.P,X7,SWDIO,>NAME_SWDIO*%
%TO.N,Net-(IC2-PA13)*%
X146227350Y-110382100D03*
D22*
%TO.P,X7,VDD,>NAME_VDD*%
%TO.N,/3V3*%
X144957350Y-110382100D03*
%TD*%
D23*
%TO.P,S2,P$1,1_P$1*%
%TO.N,Net-(S2-1)*%
X142417350Y-99385100D03*
%TO.P,S2,P$2,3_P$2*%
%TO.N,/3V3*%
X142417350Y-105885100D03*
%TD*%
D24*
%TO.P,U2,B,GND_B*%
%TO.N,GND*%
X156056950Y-113412500D03*
%TO.P,U2,C,IN_C*%
%TO.N,VCC*%
X156996950Y-111332500D03*
%TO.P,U2,E,OUT_E*%
%TO.N,/3V3*%
X157936950Y-113412500D03*
%TD*%
D25*
%TO.P,X1,1,1_1*%
%TO.N,VCC*%
X145285350Y-94612100D03*
%TO.P,X1,2,2_2*%
%TO.N,Net-(VD1-I{slash}O1)*%
X147785350Y-94612100D03*
%TO.P,X1,3,3_3*%
%TO.N,Net-(VD1-I{slash}O2)*%
X149885350Y-94612100D03*
%TO.P,X1,4,4_4*%
%TO.N,GND*%
X152285350Y-94612100D03*
D26*
%TO.P,X1,S1,S1_S1*%
%TO.N,Net-(C1-Pad1)*%
X143185350Y-91612100D03*
%TO.P,X1,S2,S2_S2*%
X154585350Y-91612100D03*
%TD*%
D13*
%TO.P,C3,1,1_1*%
%TO.N,/3V3*%
X157719550Y-115004900D03*
%TO.P,C3,2,2_2*%
%TO.N,GND*%
X155969550Y-115004900D03*
%TD*%
D14*
%TO.P,D4,A,A_A*%
%TO.N,Net-(D4-PadA)*%
X156260350Y-106073100D03*
%TO.P,D4,C,C_C*%
%TO.N,GND*%
X156260350Y-107853100D03*
%TD*%
%TO.P,D5,A,A_A*%
%TO.N,Net-(D5-PadA)*%
X154228350Y-100594100D03*
%TO.P,D5,C,C_C*%
%TO.N,GND*%
X154228350Y-98814100D03*
%TD*%
D20*
%TO.P,R19,1,1_1*%
%TO.N,Net-(IC2-PA7)*%
X150838350Y-99079100D03*
%TO.P,R19,2,2_2*%
%TO.N,Net-(D3-PadA)*%
X152538350Y-99079100D03*
%TD*%
D19*
%TO.P,R11,1,1_1*%
%TO.N,Net-(C1-Pad1)*%
X154228350Y-94419100D03*
%TO.P,R11,2,2_2*%
%TO.N,GND*%
X154228350Y-96119100D03*
%TD*%
D20*
%TO.P,R1,1,1_1*%
%TO.N,Net-(IC2-PA14-BOOT0)*%
X143394350Y-97682100D03*
%TO.P,R1,2,2_2*%
%TO.N,Net-(S2-1)*%
X141694350Y-97682100D03*
%TD*%
D13*
%TO.P,C5,1,1_1*%
%TO.N,VCC*%
X155865350Y-109366100D03*
%TO.P,C5,2,2_2*%
%TO.N,GND*%
X154115350Y-109366100D03*
%TD*%
D27*
%TO.N,/3V3*%
X147751350Y-100222100D03*
X143052350Y-105302100D03*
D28*
%TO.N,GND*%
X151942350Y-97555100D03*
X155244350Y-115589100D03*
X147497350Y-104540100D03*
X154101350Y-108350100D03*
X153085350Y-96412100D03*
X148767350Y-99714100D03*
X145465350Y-99460100D03*
D27*
%TO.N,/BUTTON1*%
X150926350Y-107842100D03*
%TO.N,Net-(IC2-PA2)*%
X150926350Y-106953100D03*
%TO.N,Net-(IC2-PA3)*%
X150926350Y-106064100D03*
%TO.N,/BUTTON2*%
X150545350Y-102254100D03*
%TO.N,Net-(IC2-PB15)*%
X149910350Y-101619100D03*
%TO.N,Net-(IC2-PA8)*%
X149783350Y-100603100D03*
%TO.N,Net-(IC2-PA9)*%
X148894350Y-100603100D03*
%TO.N,Net-(IC2-PA10)*%
X147116350Y-100857100D03*
%TO.N,Net-(IC2-PA13)*%
X145084350Y-101746100D03*
%TO.N,Net-(IC2-PA14-BOOT0)*%
X144068350Y-101238100D03*
D29*
%TO.N,/LEFT*%
X148868950Y-114584100D03*
D27*
%TO.N,Net-(IC2-PD1)*%
X142544350Y-102508100D03*
D28*
%TO.N,Net-(IC2-PD2)*%
X143310350Y-103782100D03*
D27*
%TO.N,Net-(IC2-PD3)*%
X142565250Y-104307000D03*
%TO.N,Net-(IC2-PB6)*%
X142036350Y-107461100D03*
%TO.N,Net-(IC2-PB7)*%
X141909350Y-108858100D03*
%TO.N,/UP*%
X144576350Y-106953100D03*
D30*
%TO.N,VCC*%
X156133350Y-110255100D03*
D28*
X143814350Y-96158100D03*
%TD*%
%TO.N,/BUTTON3*%
D31*
X149117479Y-113984100D02*
X149122279Y-113988900D01*
X142209350Y-113984100D02*
X147109914Y-113984100D01*
X147109914Y-113984100D02*
X147114714Y-113988900D01*
X153999750Y-112922100D02*
X153593350Y-112795100D01*
X147114714Y-113988900D02*
X148615621Y-113988900D01*
X141674350Y-113449100D02*
X142209350Y-113984100D01*
X148620421Y-113984100D02*
X149117479Y-113984100D01*
X148615621Y-113988900D02*
X148620421Y-113984100D01*
X152558700Y-113988900D02*
X153625500Y-112922100D01*
X144989500Y-107842100D02*
X144075100Y-107842100D01*
X144075100Y-107842100D02*
X141674350Y-110242850D01*
X145747350Y-107084250D02*
X144989500Y-107842100D01*
X141674350Y-110242850D02*
X141674350Y-113449100D01*
X147472400Y-113984100D02*
X147109914Y-113984100D01*
X145747350Y-106990100D02*
X145747350Y-107084250D01*
X149122279Y-113988900D02*
X152558700Y-113988900D01*
X153625500Y-112922100D02*
X153999750Y-112922100D01*
%TO.N,/DOWN*%
X146247350Y-107486950D02*
X146253200Y-107492800D01*
X144926100Y-112871300D02*
X145719350Y-112871300D01*
X143408400Y-109074486D02*
X143408400Y-111353600D01*
X145694400Y-107746800D02*
X145135600Y-108305600D01*
X146247350Y-106990100D02*
X146247350Y-107486950D01*
X145719350Y-112871300D02*
X145770150Y-112922100D01*
X146000900Y-107745100D02*
X145758665Y-107745100D01*
X146253200Y-107492800D02*
X146000900Y-107745100D01*
X145135600Y-108305600D02*
X144177286Y-108305600D01*
X144177286Y-108305600D02*
X143408400Y-109074486D01*
X143408400Y-111353600D02*
X144926100Y-112871300D01*
X145756965Y-107746800D02*
X145694400Y-107746800D01*
X145758665Y-107745100D02*
X145756965Y-107746800D01*
%TO.N,/RIGHT*%
X145924350Y-108153200D02*
X145897600Y-108153200D01*
X144285772Y-108762800D02*
X143814800Y-109233772D01*
X146747350Y-107659050D02*
X146261300Y-108145100D01*
X146261300Y-108145100D02*
X145924350Y-108145100D01*
X151154950Y-112922100D02*
X151256550Y-112922100D01*
X149992850Y-111760000D02*
X151154950Y-112922100D01*
X145288000Y-108762800D02*
X144285772Y-108762800D01*
X145897600Y-108153200D02*
X145288000Y-108762800D01*
X146747350Y-106990100D02*
X146747350Y-107659050D01*
X143814800Y-111194314D02*
X144380486Y-111760000D01*
X144380486Y-111760000D02*
X149992850Y-111760000D01*
X143814800Y-109233772D02*
X143814800Y-111194314D01*
X145924350Y-108145100D02*
X145924350Y-108153200D01*
%TO.N,/3V3*%
X145766152Y-111353600D02*
X145391209Y-110978657D01*
X157708350Y-113641100D02*
X157708350Y-113582700D01*
X142417350Y-105885100D02*
X143052350Y-105302100D01*
X157936950Y-113412500D02*
X157936950Y-114787500D01*
X157668750Y-114954100D02*
X157719550Y-115004900D01*
D32*
X147247350Y-108106100D02*
X147233350Y-108360100D01*
D31*
X145391209Y-110978657D02*
X144957350Y-110382100D01*
X155479250Y-111353600D02*
X145766152Y-111353600D01*
D32*
X146437300Y-108731100D02*
X144957350Y-110211050D01*
X147247350Y-106990100D02*
X147247350Y-108106100D01*
D31*
X144957350Y-110382100D02*
X144703350Y-110509100D01*
D32*
X146989350Y-108731100D02*
X146437300Y-108731100D01*
D33*
X147747350Y-102090100D02*
X147747350Y-101496100D01*
D31*
X157936950Y-113412500D02*
X157708350Y-113641100D01*
X157708350Y-113582700D02*
X155479250Y-111353600D01*
D32*
X147233350Y-108360100D02*
X147233350Y-108501100D01*
X144957350Y-110211050D02*
X144957350Y-110382100D01*
X147233350Y-108501100D02*
X146749350Y-108985100D01*
D33*
X147747350Y-101496100D02*
X147751350Y-100222100D01*
D32*
X147247350Y-108473100D02*
X146989350Y-108731100D01*
D31*
X157770350Y-114954100D02*
X157668750Y-114954100D01*
X157936950Y-114787500D02*
X157770350Y-114954100D01*
D32*
X147247350Y-108106100D02*
X147247350Y-108473100D01*
%TO.N,GND*%
D33*
X154228350Y-107853100D02*
X154228350Y-108223100D01*
X148386350Y-104540100D02*
X147497350Y-104667100D01*
D31*
X147497350Y-104540100D02*
X147624350Y-104540100D01*
X156056950Y-113412500D02*
X155969550Y-113499900D01*
D32*
X148499350Y-109005850D02*
X147751350Y-109753850D01*
D33*
X147497350Y-104540100D02*
X147747350Y-104790100D01*
X148386350Y-104540100D02*
X147624350Y-104540100D01*
D32*
X148118350Y-108604100D02*
X148499350Y-108985100D01*
D31*
X156260350Y-98814100D02*
X154228350Y-98814100D01*
D33*
X145719350Y-98684100D02*
X145465350Y-99460100D01*
D31*
X155867950Y-114903300D02*
X155969550Y-115004900D01*
D33*
X147747350Y-104790100D02*
X147747350Y-106990100D01*
X154228350Y-108223100D02*
X154101350Y-108350100D01*
D32*
X148005350Y-108604100D02*
X148118350Y-108604100D01*
D33*
X156398350Y-107853100D02*
X156398350Y-108107100D01*
X147497350Y-104667100D02*
X147497350Y-104540100D01*
D31*
X155969550Y-115004900D02*
X155817150Y-115004900D01*
D32*
X147747350Y-106990100D02*
X147747350Y-108346100D01*
D31*
X155385350Y-115448100D02*
X155244350Y-115589100D01*
D32*
X148499350Y-108985100D02*
X148499350Y-109005850D01*
D31*
X155385350Y-115436700D02*
X155385350Y-115448100D01*
D33*
X154228350Y-107853100D02*
X152196350Y-107853100D01*
D32*
X147751350Y-110128100D02*
X147497350Y-110382100D01*
D33*
X154115350Y-109366100D02*
X154115350Y-108364100D01*
X154037850Y-108286600D02*
X154101350Y-108350100D01*
X147497350Y-104540100D02*
X146227350Y-104413100D01*
D32*
X147751350Y-109753850D02*
X147751350Y-110128100D01*
X147747350Y-108346100D02*
X148005350Y-108604100D01*
D31*
X155969550Y-114903300D02*
X155867950Y-114903300D01*
X155969550Y-113499900D02*
X155969550Y-114903300D01*
D33*
X148767350Y-99093100D02*
X148767350Y-99714100D01*
X154115350Y-108364100D02*
X154037850Y-108286600D01*
D31*
X155817150Y-115004900D02*
X155385350Y-115436700D01*
D33*
X154228350Y-107853100D02*
X156398350Y-107853100D01*
X156260350Y-107853100D02*
X154228350Y-107853100D01*
%TO.N,Net-(IC2-PF2-NRST)*%
D31*
X148247350Y-106990100D02*
X148247350Y-107614236D01*
X149910350Y-110255100D02*
X150037350Y-110382100D01*
X149313900Y-108115100D02*
X149910350Y-108711550D01*
X149910350Y-108711550D02*
X149910350Y-110255100D01*
X148247350Y-107614236D02*
X148748215Y-108115100D01*
X148748215Y-108115100D02*
X149313900Y-108115100D01*
%TO.N,Net-(IC2-PA0)*%
X150310350Y-108550085D02*
X151126365Y-109366100D01*
X150310350Y-108545865D02*
X150310350Y-108550085D01*
X148747350Y-106990100D02*
X148747350Y-107548550D01*
X148913900Y-107715100D02*
X149479586Y-107715100D01*
X151126365Y-109366100D02*
X151942350Y-109366100D01*
X149479586Y-107715100D02*
X150310350Y-108545865D01*
X148747350Y-107548550D02*
X148913900Y-107715100D01*
%TO.N,/BUTTON1*%
X149408100Y-106990100D02*
X150133100Y-107715100D01*
X149247350Y-106990100D02*
X149408100Y-106990100D01*
X150799350Y-107715100D02*
X150926350Y-107842100D01*
X150133100Y-107715100D02*
X150799350Y-107715100D01*
%TO.N,Net-(IC2-PA2)*%
X150539500Y-106953100D02*
X150926350Y-106953100D01*
X149947350Y-106360950D02*
X150539500Y-106953100D01*
X149947350Y-106290100D02*
X149947350Y-106360950D01*
%TO.N,Net-(IC2-PA3)*%
X149947350Y-105790100D02*
X150525350Y-105790100D01*
X150525350Y-105790100D02*
X150926350Y-106064100D01*
%TO.N,Net-(IC2-PA4)*%
X156133350Y-103905100D02*
X152438586Y-103905100D01*
X149959350Y-105302100D02*
X149947350Y-105290100D01*
X151034700Y-105302100D02*
X149959350Y-105302100D01*
X151146700Y-105190100D02*
X151034700Y-105302100D01*
X156387350Y-103651100D02*
X156133350Y-103905100D01*
X156387350Y-103055100D02*
X156387350Y-103651100D01*
X152438586Y-103905100D02*
X151153585Y-105190100D01*
X151153585Y-105190100D02*
X151146700Y-105190100D01*
%TO.N,Net-(IC2-PA5)*%
X150987900Y-104790100D02*
X152380900Y-103397100D01*
X152870350Y-103270100D02*
X153085350Y-103055100D01*
X152743350Y-103397100D02*
X153085350Y-103055100D01*
X152380900Y-103397100D02*
X152743350Y-103397100D01*
X149947350Y-104790100D02*
X150987900Y-104790100D01*
%TO.N,Net-(IC2-PA6)*%
X153833750Y-102152500D02*
X154736350Y-103055100D01*
X152095200Y-103022400D02*
X152095200Y-102482250D01*
X150827500Y-104290100D02*
X152095200Y-103022400D01*
X152424950Y-102152500D02*
X153833750Y-102152500D01*
X149947350Y-104290100D02*
X150827500Y-104290100D01*
X152095200Y-102482250D02*
X152424950Y-102152500D01*
%TO.N,Net-(IC2-PA7)*%
X150660350Y-103790100D02*
X151688350Y-102762100D01*
X149947350Y-103790100D02*
X150660350Y-103790100D01*
X151688350Y-99929100D02*
X150838350Y-99079100D01*
X151688350Y-102762100D02*
X151688350Y-99929100D01*
%TO.N,Net-(IC2-PB0)*%
X151044025Y-102762100D02*
X151053350Y-102762100D01*
X149967350Y-103270100D02*
X150536025Y-103270100D01*
X150926350Y-100743707D02*
X150838350Y-100677494D01*
X150536025Y-103270100D02*
X151044025Y-102762100D01*
X151180350Y-102635100D02*
X151180350Y-101019494D01*
X151053350Y-100892494D02*
X150838350Y-100677494D01*
X151053350Y-102762100D02*
X151180350Y-102635100D01*
X151180350Y-101019494D02*
X150838350Y-100677494D01*
X149947350Y-103290100D02*
X149967350Y-103270100D01*
%TO.N,/BUTTON2*%
X150009350Y-102790100D02*
X150545350Y-102254100D01*
X149947350Y-102790100D02*
X150009350Y-102790100D01*
%TO.N,Net-(IC2-PB15)*%
X149891700Y-101619100D02*
X149910350Y-101619100D01*
X150037350Y-101492100D02*
X149910350Y-101619100D01*
X149420700Y-102090100D02*
X149891700Y-101619100D01*
X149247350Y-102090100D02*
X149420700Y-102090100D01*
%TO.N,Net-(IC2-PA8)*%
X149199600Y-101244400D02*
X149015050Y-101244400D01*
X149015050Y-101244400D02*
X148747350Y-101512100D01*
X148747350Y-101512100D02*
X148747350Y-102090100D01*
X149783350Y-100603100D02*
X149783350Y-100660650D01*
X149783350Y-100660650D02*
X149199600Y-101244400D01*
%TO.N,Net-(IC2-PA9)*%
X148247350Y-102090100D02*
X148247350Y-101129850D01*
X148247350Y-101129850D02*
X148774100Y-100603100D01*
X148774100Y-100603100D02*
X148894350Y-100603100D01*
%TO.N,Net-(IC2-PA10)*%
X147269200Y-102068250D02*
X147269200Y-101009950D01*
X147269200Y-101009950D02*
X147116350Y-100857100D01*
X147247350Y-102090100D02*
X147269200Y-102068250D01*
%TO.N,Net-(IC2-PA11_[PA9])*%
X146456400Y-100330000D02*
X147693300Y-99093100D01*
X146747350Y-102090100D02*
X146747350Y-101504100D01*
X147693300Y-99093100D02*
X147817350Y-99093100D01*
X146456400Y-101213150D02*
X146456400Y-100330000D01*
X146747350Y-101504100D02*
X146456400Y-101213150D01*
%TO.N,Net-(IC2-PA12_[PA10])*%
X149717350Y-98505100D02*
X149402350Y-98190100D01*
X147170900Y-98193100D02*
X146913600Y-98450400D01*
X146913600Y-99307114D02*
X146056400Y-100164315D01*
X146056400Y-101378836D02*
X146247350Y-101569785D01*
X147374100Y-98193100D02*
X147170900Y-98193100D01*
X149402350Y-98190100D02*
X147377100Y-98190100D01*
X146056400Y-100164315D02*
X146056400Y-101378836D01*
D33*
X149717350Y-99093100D02*
X149717350Y-98505100D01*
D31*
X147377100Y-98190100D02*
X147374100Y-98193100D01*
X146913600Y-98450400D02*
X146913600Y-99307114D01*
X146247350Y-101569785D02*
X146247350Y-102090100D01*
%TO.N,Net-(IC2-PA13)*%
X145428350Y-102090100D02*
X145084350Y-101746100D01*
X145747350Y-102090100D02*
X145428350Y-102090100D01*
%TO.N,Net-(IC2-PA14-BOOT0)*%
D33*
X144068800Y-101237650D02*
X144068350Y-101238100D01*
D31*
X145004900Y-102790100D02*
X144195350Y-101980550D01*
D33*
X143394350Y-97682100D02*
X143179350Y-97682100D01*
X143179350Y-97682100D02*
X144068800Y-98571550D01*
D31*
X144195350Y-101980550D02*
X144195350Y-101365100D01*
X144195350Y-101365100D02*
X144068350Y-101238100D01*
D33*
X144068800Y-98571550D02*
X144068800Y-101237650D01*
D31*
X145047350Y-102790100D02*
X145004900Y-102790100D01*
%TO.N,/LEFT*%
X142290800Y-101854000D02*
X143103600Y-101854000D01*
X141274350Y-113639150D02*
X141274350Y-102870450D01*
X147072354Y-114401600D02*
X145211946Y-114401600D01*
X143958654Y-114400100D02*
X143957154Y-114401600D01*
X148868950Y-114584100D02*
X148686450Y-114401600D01*
X143103600Y-101854000D02*
X144539700Y-103290100D01*
X143957154Y-114401600D02*
X142036800Y-114401600D01*
X144539700Y-103290100D02*
X145047350Y-103290100D01*
X141274350Y-102870450D02*
X142290800Y-101854000D01*
X145211946Y-114401600D02*
X145210446Y-114400100D01*
X148885350Y-112922100D02*
X148513350Y-112922100D01*
X147953646Y-114400100D02*
X147073854Y-114400100D01*
X142036800Y-114401600D02*
X141274350Y-113639150D01*
X147955146Y-114401600D02*
X147953646Y-114400100D01*
X145210446Y-114400100D02*
X143958654Y-114400100D01*
X147073854Y-114400100D02*
X147072354Y-114401600D01*
X148686450Y-114401600D02*
X147955146Y-114401600D01*
%TO.N,Net-(IC2-PD1)*%
X145047350Y-103790100D02*
X144461350Y-103790100D01*
X142550650Y-102514400D02*
X142544350Y-102508100D01*
X144461350Y-103790100D02*
X143185650Y-102514400D01*
X143185650Y-102514400D02*
X142550650Y-102514400D01*
%TO.N,Net-(IC2-PD2)*%
X145047350Y-104290100D02*
X144374225Y-104290100D01*
X144374225Y-104290100D02*
X143989225Y-103905100D01*
X143433350Y-103905100D02*
X143310350Y-103782100D01*
X143989225Y-103905100D02*
X143433350Y-103905100D01*
%TO.N,Net-(IC2-PD3)*%
X144191350Y-104790100D02*
X145047350Y-104790100D01*
X143941350Y-104540100D02*
X144191350Y-104790100D01*
X142565250Y-104307000D02*
X142798350Y-104540100D01*
X142798350Y-104540100D02*
X143941350Y-104540100D01*
%TO.N,Net-(IC2-PB6)*%
X145047350Y-105290100D02*
X144391900Y-105290100D01*
X143510000Y-107086400D02*
X143135300Y-107461100D01*
X143510000Y-106172000D02*
X143510000Y-107086400D01*
X143135300Y-107461100D02*
X142036350Y-107461100D01*
X144391900Y-105290100D02*
X143510000Y-106172000D01*
%TO.N,Net-(IC2-PB7)*%
X145047350Y-105790100D02*
X144457586Y-105790100D01*
X143916400Y-107289600D02*
X142347900Y-108858100D01*
X144457586Y-105790100D02*
X143916400Y-106331286D01*
X143916400Y-106331286D02*
X143916400Y-107289600D01*
X142347900Y-108858100D02*
X141909350Y-108858100D01*
%TO.N,/UP*%
X145017500Y-106290100D02*
X144576350Y-106731250D01*
X144576350Y-106731250D02*
X144576350Y-106953100D01*
X145047350Y-106290100D02*
X145017500Y-106290100D01*
%TO.N,Net-(C1-Pad1)*%
D34*
X154228350Y-94419100D02*
X154380350Y-94419100D01*
X154921350Y-93828100D02*
X154921350Y-91875100D01*
X154921350Y-91875100D02*
X154585350Y-91612100D01*
D33*
X143185350Y-91612100D02*
X142921350Y-91717100D01*
%TO.N,Net-(D2-PadA)*%
X154355350Y-105946100D02*
X154228350Y-106073100D01*
X154355350Y-105048100D02*
X154355350Y-105946100D01*
X154736350Y-104755100D02*
X154648350Y-104755100D01*
X154648350Y-104755100D02*
X154355350Y-105048100D01*
%TO.N,Net-(D3-PadA)*%
D31*
X152958350Y-99460100D02*
X152665350Y-99460100D01*
X155117350Y-99714100D02*
X153212350Y-99714100D01*
X156260350Y-100594100D02*
X155997350Y-100594100D01*
X155244350Y-99841100D02*
X155117350Y-99714100D01*
X153212350Y-99714100D02*
X152958350Y-99460100D01*
X152665350Y-99460100D02*
X152538350Y-99079100D01*
X155997350Y-100594100D02*
X155244350Y-99841100D01*
%TO.N,Net-(D1-PadA)*%
D33*
X153085350Y-104755100D02*
X152997350Y-104755100D01*
X152997350Y-104755100D02*
X152704350Y-105048100D01*
X152704350Y-105048100D02*
X152704350Y-105810100D01*
X152459350Y-105810100D02*
X152196350Y-106073100D01*
X152704350Y-105810100D02*
X152459350Y-105810100D01*
%TO.N,VCC*%
X146108500Y-96934100D02*
X145719350Y-96934100D01*
D31*
X157189550Y-111525100D02*
X157835150Y-111525100D01*
X156996950Y-111332500D02*
X157189550Y-111525100D01*
X158673350Y-112363300D02*
X158673350Y-115716100D01*
X157835150Y-111525100D02*
X158673350Y-112363300D01*
D33*
X156996950Y-111332500D02*
X156996950Y-111118700D01*
X155865350Y-109366100D02*
X155865350Y-110114100D01*
X146925197Y-97739200D02*
X146913600Y-97739200D01*
D31*
X157784350Y-116605100D02*
X148656750Y-116605100D01*
D33*
X148767350Y-97257050D02*
X148288300Y-97736100D01*
X146913600Y-97739200D02*
X146108500Y-96934100D01*
D31*
X147513750Y-115462100D02*
X147141750Y-115462100D01*
D33*
X146928298Y-97736100D02*
X146925197Y-97739200D01*
X155865350Y-110114100D02*
X156133350Y-110255100D01*
D31*
X148656750Y-116605100D02*
X147513750Y-115462100D01*
D33*
X148288300Y-97736100D02*
X146928298Y-97736100D01*
X148767350Y-96793100D02*
X148767350Y-97257050D01*
X156996950Y-111118700D02*
X156133350Y-110255100D01*
D31*
X158673350Y-115716100D02*
X157784350Y-116605100D01*
%TO.N,Net-(VD1-I{slash}O2)*%
D33*
X149885350Y-94612100D02*
X149885350Y-96625100D01*
X149885350Y-96625100D02*
X149717350Y-96793100D01*
%TO.N,Net-(VD1-I{slash}O1)*%
X147785350Y-96761100D02*
X147817350Y-96793100D01*
X147785350Y-94612100D02*
X147785350Y-96761100D01*
%TO.N,Net-(D4-PadA)*%
X156387350Y-105946100D02*
X156260350Y-106073100D01*
X156387350Y-104755100D02*
X156387350Y-105946100D01*
%TO.N,Net-(D5-PadA)*%
D31*
X154228350Y-100594100D02*
X152621743Y-100594100D01*
X152621743Y-100594100D02*
X152538350Y-100677494D01*
%TO.N,Net-(S2-1)*%
D33*
X141694350Y-97682100D02*
X141694350Y-98174425D01*
X142417350Y-98897425D02*
X142417350Y-99385100D01*
X141694350Y-98174425D02*
X142417350Y-98897425D01*
%TD*%
%TA.AperFunction,Conductor*%
%TO.N,Net-(C1-Pad1)*%
G36*
X155275292Y-88982632D02*
G01*
X155277415Y-88982701D01*
X155279388Y-88982799D01*
X155527960Y-88999091D01*
X155532002Y-88999489D01*
X155536064Y-89000023D01*
X155540085Y-89000686D01*
X155781385Y-89048684D01*
X155785331Y-89049604D01*
X155789304Y-89050669D01*
X155793175Y-89051843D01*
X156002089Y-89122759D01*
X156026141Y-89130924D01*
X156026144Y-89130925D01*
X156029963Y-89132363D01*
X156033728Y-89133922D01*
X156037461Y-89135612D01*
X156258114Y-89244426D01*
X156261694Y-89246340D01*
X156265246Y-89248391D01*
X156268702Y-89250541D01*
X156473243Y-89387211D01*
X156476562Y-89389589D01*
X156479800Y-89392073D01*
X156482967Y-89394672D01*
X156667923Y-89556874D01*
X156670908Y-89559670D01*
X156673778Y-89562540D01*
X156676574Y-89565525D01*
X156723233Y-89618729D01*
X156838777Y-89750482D01*
X156841365Y-89753636D01*
X156841380Y-89753654D01*
X156843856Y-89756881D01*
X156846236Y-89760203D01*
X156982907Y-89964746D01*
X156985062Y-89968211D01*
X156987100Y-89971740D01*
X156989028Y-89975346D01*
X157097836Y-90195988D01*
X157099524Y-90199716D01*
X157101085Y-90203485D01*
X157102525Y-90207310D01*
X157181597Y-90440248D01*
X157182783Y-90444157D01*
X157183838Y-90448093D01*
X157184768Y-90452081D01*
X157232759Y-90693353D01*
X157233426Y-90697394D01*
X157233958Y-90701438D01*
X157234358Y-90705502D01*
X157250649Y-90954043D01*
X157250748Y-90956059D01*
X157250816Y-90958128D01*
X157250850Y-90960153D01*
X157250850Y-93030668D01*
X157246090Y-93054592D01*
X157242448Y-93063382D01*
X157208634Y-93097197D01*
X157202607Y-93099694D01*
X157199842Y-93100839D01*
X157175919Y-93105600D01*
X157155052Y-93105600D01*
X156918621Y-93136727D01*
X156918614Y-93136727D01*
X156914557Y-93137262D01*
X156914556Y-93137262D01*
X156914555Y-93137262D01*
X156914549Y-93137263D01*
X156680270Y-93200037D01*
X156680266Y-93200039D01*
X156458192Y-93292024D01*
X156457237Y-93292380D01*
X156456141Y-93292873D01*
X156246065Y-93414160D01*
X156053617Y-93561829D01*
X156053615Y-93561831D01*
X156053599Y-93561846D01*
X155882096Y-93733349D01*
X155882081Y-93733365D01*
X155882079Y-93733367D01*
X155734410Y-93925815D01*
X155613123Y-94135891D01*
X155612630Y-94136987D01*
X155612274Y-94137942D01*
X155520289Y-94360016D01*
X155520287Y-94360020D01*
X155457513Y-94594299D01*
X155456978Y-94598365D01*
X155456977Y-94598368D01*
X155425850Y-94834802D01*
X155425850Y-95077396D01*
X155456977Y-95313828D01*
X155456977Y-95313834D01*
X155456978Y-95313834D01*
X155457513Y-95317899D01*
X155520287Y-95552178D01*
X155520289Y-95552182D01*
X155612274Y-95774256D01*
X155612631Y-95775214D01*
X155613123Y-95776307D01*
X155613124Y-95776308D01*
X155613125Y-95776311D01*
X155712657Y-95948705D01*
X155734414Y-95986389D01*
X155882085Y-96178838D01*
X156053612Y-96350365D01*
X156246061Y-96498036D01*
X156456138Y-96619324D01*
X156680250Y-96712154D01*
X156680258Y-96712156D01*
X156680266Y-96712159D01*
X156680276Y-96712161D01*
X156680316Y-96712175D01*
X156680658Y-96712264D01*
X156872441Y-96763652D01*
X156914561Y-96774938D01*
X157155062Y-96806600D01*
X157175919Y-96806600D01*
X157199839Y-96811359D01*
X157208628Y-96815000D01*
X157242448Y-96848817D01*
X157246090Y-96857609D01*
X157250850Y-96881531D01*
X157250850Y-98207614D01*
X157246091Y-98231535D01*
X157242551Y-98240080D01*
X157227643Y-98254986D01*
X157214272Y-98271279D01*
X157211029Y-98271598D01*
X157208725Y-98273903D01*
X157166667Y-98275968D01*
X157162497Y-98274703D01*
X157145917Y-98266861D01*
X157098585Y-98235235D01*
X157098584Y-98235234D01*
X157098582Y-98235233D01*
X157098580Y-98235232D01*
X157098576Y-98235231D01*
X157098578Y-98235231D01*
X157040100Y-98223600D01*
X157040098Y-98223600D01*
X155480602Y-98223600D01*
X155480599Y-98223600D01*
X155422121Y-98235231D01*
X155422109Y-98235237D01*
X155355796Y-98279546D01*
X155311487Y-98345859D01*
X155311482Y-98345868D01*
X155311481Y-98345871D01*
X155308074Y-98363004D01*
X155298741Y-98385535D01*
X155295003Y-98391129D01*
X155255229Y-98417704D01*
X155208313Y-98408371D01*
X155181738Y-98368598D01*
X155177217Y-98345871D01*
X155177217Y-98345869D01*
X155177216Y-98345867D01*
X155177213Y-98345863D01*
X155177212Y-98345860D01*
X155132902Y-98279546D01*
X155066589Y-98235237D01*
X155066585Y-98235235D01*
X155066582Y-98235233D01*
X155066580Y-98235232D01*
X155066576Y-98235231D01*
X155066578Y-98235231D01*
X155008100Y-98223600D01*
X155008098Y-98223600D01*
X154681114Y-98223600D01*
X154636920Y-98205294D01*
X154628194Y-98194352D01*
X154617273Y-98176971D01*
X154542689Y-98124051D01*
X154542688Y-98124050D01*
X154542686Y-98124049D01*
X154498492Y-98105743D01*
X154498489Y-98105742D01*
X154498486Y-98105741D01*
X154419850Y-98090100D01*
X154417850Y-98090100D01*
X154417226Y-98089841D01*
X154416794Y-98089799D01*
X154416806Y-98089667D01*
X154373656Y-98071794D01*
X154355350Y-98027600D01*
X154355350Y-97082600D01*
X154373656Y-97038406D01*
X154416806Y-97020532D01*
X154416794Y-97020401D01*
X154417226Y-97020358D01*
X154417850Y-97020100D01*
X154419850Y-97020100D01*
X154498492Y-97004457D01*
X154542686Y-96986151D01*
X154600977Y-96949524D01*
X154653901Y-96874936D01*
X154660841Y-96858182D01*
X154694665Y-96824358D01*
X154718583Y-96819600D01*
X154798098Y-96819600D01*
X154856581Y-96807967D01*
X154922902Y-96763652D01*
X154967217Y-96697331D01*
X154978850Y-96638848D01*
X154978850Y-95599352D01*
X154967217Y-95540869D01*
X154967216Y-95540867D01*
X154967213Y-95540863D01*
X154967212Y-95540860D01*
X154922902Y-95474546D01*
X154856589Y-95430237D01*
X154856585Y-95430235D01*
X154856582Y-95430233D01*
X154856580Y-95430232D01*
X154856576Y-95430231D01*
X154856578Y-95430231D01*
X154798100Y-95418600D01*
X154798098Y-95418600D01*
X154430281Y-95418600D01*
X154406359Y-95413840D01*
X154400978Y-95411611D01*
X154397567Y-95410198D01*
X154363749Y-95376376D01*
X154363746Y-95376370D01*
X154363746Y-95376368D01*
X154360108Y-95367586D01*
X154355350Y-95343668D01*
X154355350Y-94253100D01*
X153160781Y-94253100D01*
X153136859Y-94248340D01*
X153131478Y-94246111D01*
X153128067Y-94244698D01*
X153126889Y-94243520D01*
X153094249Y-94210876D01*
X153094246Y-94210870D01*
X153094246Y-94210868D01*
X153090608Y-94202086D01*
X153085850Y-94178168D01*
X153085850Y-93392352D01*
X153074217Y-93333869D01*
X153046826Y-93292876D01*
X153029902Y-93267547D01*
X153029901Y-93267546D01*
X153029899Y-93267544D01*
X152963589Y-93223237D01*
X152963585Y-93223235D01*
X152963582Y-93223233D01*
X152963580Y-93223232D01*
X152963576Y-93223231D01*
X152963578Y-93223231D01*
X152905100Y-93211600D01*
X152905098Y-93211600D01*
X151665602Y-93211600D01*
X151665599Y-93211600D01*
X151607121Y-93223231D01*
X151607109Y-93223237D01*
X151540796Y-93267546D01*
X151496487Y-93333859D01*
X151496481Y-93333871D01*
X151484850Y-93392348D01*
X151484850Y-94178168D01*
X151480090Y-94202092D01*
X151476448Y-94210882D01*
X151442634Y-94244697D01*
X151436607Y-94247194D01*
X151433842Y-94248339D01*
X151409919Y-94253100D01*
X150760781Y-94253100D01*
X150736859Y-94248340D01*
X150731478Y-94246111D01*
X150728067Y-94244698D01*
X150694249Y-94210876D01*
X150690608Y-94202086D01*
X150685850Y-94178168D01*
X150685850Y-93392352D01*
X150674217Y-93333869D01*
X150646826Y-93292876D01*
X150629902Y-93267547D01*
X150629901Y-93267546D01*
X150629899Y-93267544D01*
X150563589Y-93223237D01*
X150563585Y-93223235D01*
X150563582Y-93223233D01*
X150563580Y-93223232D01*
X150563576Y-93223231D01*
X150563578Y-93223231D01*
X150505100Y-93211600D01*
X150505098Y-93211600D01*
X149265602Y-93211600D01*
X149265599Y-93211600D01*
X149207121Y-93223231D01*
X149207109Y-93223237D01*
X149140796Y-93267546D01*
X149096487Y-93333859D01*
X149096481Y-93333871D01*
X149084850Y-93392348D01*
X149084850Y-94178168D01*
X149080090Y-94202092D01*
X149076448Y-94210882D01*
X149042634Y-94244697D01*
X149036607Y-94247194D01*
X149033842Y-94248339D01*
X149009919Y-94253100D01*
X148660781Y-94253100D01*
X148636859Y-94248340D01*
X148631478Y-94246111D01*
X148628067Y-94244698D01*
X148594249Y-94210876D01*
X148590608Y-94202086D01*
X148585850Y-94178168D01*
X148585850Y-93392352D01*
X148574217Y-93333869D01*
X148546826Y-93292876D01*
X148529902Y-93267547D01*
X148529901Y-93267546D01*
X148529899Y-93267544D01*
X148463589Y-93223237D01*
X148463585Y-93223235D01*
X148463582Y-93223233D01*
X148463580Y-93223232D01*
X148463576Y-93223231D01*
X148463578Y-93223231D01*
X148405100Y-93211600D01*
X148405098Y-93211600D01*
X147165602Y-93211600D01*
X147165599Y-93211600D01*
X147107121Y-93223231D01*
X147107109Y-93223237D01*
X147040796Y-93267546D01*
X146996487Y-93333859D01*
X146996481Y-93333871D01*
X146984850Y-93392348D01*
X146984850Y-94178168D01*
X146980090Y-94202092D01*
X146976448Y-94210882D01*
X146942634Y-94244697D01*
X146936607Y-94247194D01*
X146933842Y-94248339D01*
X146909919Y-94253100D01*
X146160781Y-94253100D01*
X146136859Y-94248340D01*
X146131478Y-94246111D01*
X146128067Y-94244698D01*
X146094249Y-94210876D01*
X146090608Y-94202086D01*
X146085850Y-94178168D01*
X146085850Y-93392352D01*
X146074217Y-93333869D01*
X146046826Y-93292876D01*
X146029902Y-93267547D01*
X146029901Y-93267546D01*
X146029899Y-93267544D01*
X145963589Y-93223237D01*
X145963585Y-93223235D01*
X145963582Y-93223233D01*
X145963580Y-93223232D01*
X145963576Y-93223231D01*
X145963578Y-93223231D01*
X145905100Y-93211600D01*
X145905098Y-93211600D01*
X144665602Y-93211600D01*
X144665599Y-93211600D01*
X144607121Y-93223231D01*
X144607109Y-93223237D01*
X144540796Y-93267546D01*
X144496487Y-93333859D01*
X144496481Y-93333871D01*
X144484850Y-93392348D01*
X144484850Y-94132890D01*
X144466544Y-94177084D01*
X144422350Y-94195390D01*
X144400454Y-94191035D01*
X144400425Y-94191133D01*
X144399439Y-94190833D01*
X144398439Y-94190635D01*
X144397493Y-94190243D01*
X144397490Y-94190242D01*
X144318850Y-94174600D01*
X143495850Y-94174600D01*
X143417209Y-94190242D01*
X143373020Y-94208546D01*
X143373007Y-94208553D01*
X143317358Y-94243520D01*
X143284106Y-94253100D01*
X142024317Y-94253100D01*
X142000400Y-94248342D01*
X141985391Y-94242125D01*
X141951569Y-94208302D01*
X141946221Y-94195390D01*
X141921579Y-94135900D01*
X141921573Y-94135888D01*
X141921570Y-94135881D01*
X141801218Y-93927427D01*
X141800736Y-93926529D01*
X141800289Y-93925815D01*
X141652619Y-93733367D01*
X141652610Y-93733357D01*
X141481096Y-93561842D01*
X141481069Y-93561819D01*
X141480925Y-93561709D01*
X141288636Y-93414162D01*
X141250858Y-93392351D01*
X141149566Y-93333870D01*
X141078561Y-93292875D01*
X141078559Y-93292874D01*
X141078557Y-93292873D01*
X141077464Y-93292381D01*
X141076506Y-93292024D01*
X141017412Y-93267547D01*
X140985725Y-93254422D01*
X140910438Y-93223237D01*
X140854844Y-93200209D01*
X140854480Y-93200055D01*
X140854368Y-93200018D01*
X140854042Y-93199934D01*
X140620146Y-93137262D01*
X140379646Y-93105600D01*
X140379642Y-93105600D01*
X140379638Y-93105600D01*
X140358781Y-93105600D01*
X140334859Y-93100840D01*
X140329478Y-93098611D01*
X140326067Y-93097198D01*
X140326066Y-93097197D01*
X140292249Y-93063376D01*
X140292246Y-93063370D01*
X140292246Y-93063368D01*
X140288608Y-93054586D01*
X140283850Y-93030668D01*
X140283850Y-91533256D01*
X145834850Y-91533256D01*
X145834850Y-91690942D01*
X145865612Y-91845594D01*
X145925956Y-91991281D01*
X146013559Y-92122387D01*
X146125061Y-92233889D01*
X146256683Y-92321837D01*
X146259005Y-92322668D01*
X146401849Y-92381836D01*
X146401852Y-92381836D01*
X146401853Y-92381837D01*
X146556508Y-92412600D01*
X146714192Y-92412600D01*
X146868847Y-92381837D01*
X147014529Y-92321494D01*
X147145639Y-92233889D01*
X147257139Y-92122389D01*
X147344744Y-91991279D01*
X147405087Y-91845597D01*
X147435850Y-91690942D01*
X147435850Y-91533258D01*
X147435850Y-91533256D01*
X150334850Y-91533256D01*
X150334850Y-91690942D01*
X150365612Y-91845594D01*
X150425956Y-91991281D01*
X150513559Y-92122387D01*
X150625061Y-92233889D01*
X150756683Y-92321837D01*
X150759005Y-92322668D01*
X150901849Y-92381836D01*
X150901852Y-92381836D01*
X150901853Y-92381837D01*
X151056508Y-92412600D01*
X151214192Y-92412600D01*
X151368847Y-92381837D01*
X151514529Y-92321494D01*
X151645639Y-92233889D01*
X151757139Y-92122389D01*
X151844744Y-91991279D01*
X151905087Y-91845597D01*
X151935850Y-91690942D01*
X151935850Y-91533258D01*
X151905087Y-91378603D01*
X151844744Y-91232921D01*
X151844741Y-91232917D01*
X151757139Y-91101811D01*
X151645637Y-90990309D01*
X151514531Y-90902706D01*
X151441687Y-90872534D01*
X151368845Y-90842362D01*
X151214192Y-90811600D01*
X151056508Y-90811600D01*
X150901854Y-90842362D01*
X150756167Y-90902706D01*
X150625061Y-90990309D01*
X150513559Y-91101811D01*
X150425956Y-91232917D01*
X150365612Y-91378604D01*
X150334850Y-91533256D01*
X147435850Y-91533256D01*
X147405087Y-91378603D01*
X147344744Y-91232921D01*
X147344741Y-91232917D01*
X147257139Y-91101811D01*
X147145637Y-90990309D01*
X147014531Y-90902706D01*
X146941687Y-90872534D01*
X146868845Y-90842362D01*
X146714192Y-90811600D01*
X146556508Y-90811600D01*
X146401854Y-90842362D01*
X146256167Y-90902706D01*
X146125061Y-90990309D01*
X146013559Y-91101811D01*
X145925956Y-91232917D01*
X145865612Y-91378604D01*
X145834850Y-91533256D01*
X140283850Y-91533256D01*
X140283850Y-90960153D01*
X140283882Y-90958157D01*
X140283952Y-90956030D01*
X140284050Y-90954043D01*
X140292551Y-90824342D01*
X140300340Y-90705505D01*
X140300740Y-90701438D01*
X140301276Y-90697367D01*
X140301940Y-90693350D01*
X140328247Y-90561097D01*
X140349935Y-90452059D01*
X140350862Y-90448086D01*
X140351915Y-90444158D01*
X140353100Y-90440251D01*
X140432175Y-90207303D01*
X140433612Y-90203485D01*
X140435184Y-90199688D01*
X140436862Y-90195988D01*
X140479962Y-90108590D01*
X140504260Y-90059321D01*
X140545671Y-89975346D01*
X140545678Y-89975331D01*
X140547591Y-89971752D01*
X140549638Y-89968206D01*
X140551774Y-89964770D01*
X140688474Y-89760185D01*
X140690842Y-89756881D01*
X140693340Y-89753625D01*
X140695900Y-89750506D01*
X140858146Y-89565500D01*
X140860920Y-89562540D01*
X140863797Y-89559662D01*
X140866750Y-89556896D01*
X141051756Y-89394650D01*
X141054875Y-89392090D01*
X141058145Y-89389581D01*
X141061435Y-89387224D01*
X141266020Y-89250524D01*
X141269456Y-89248388D01*
X141273002Y-89246341D01*
X141276568Y-89244434D01*
X141497257Y-89135602D01*
X141500947Y-89133931D01*
X141504754Y-89132354D01*
X141508522Y-89130935D01*
X141741507Y-89051847D01*
X141745408Y-89050665D01*
X141749336Y-89049612D01*
X141753302Y-89048686D01*
X141994619Y-89000686D01*
X141998606Y-89000027D01*
X142002719Y-88999486D01*
X142006735Y-88999091D01*
X142255311Y-88982799D01*
X142257284Y-88982701D01*
X142259407Y-88982632D01*
X142261405Y-88982600D01*
X155273295Y-88982600D01*
X155275292Y-88982632D01*
G37*
%TD.AperFunction*%
%TD*%
%TA.AperFunction,Conductor*%
%TO.N,VCC*%
G36*
X144363044Y-94398406D02*
G01*
X144381350Y-94442600D01*
X144381350Y-94460100D01*
X145222850Y-94460100D01*
X145267044Y-94478406D01*
X145285350Y-94522600D01*
X145285350Y-94701600D01*
X145267044Y-94745794D01*
X145222850Y-94764100D01*
X144381350Y-94764100D01*
X144381350Y-95857488D01*
X144384299Y-95882907D01*
X144384299Y-95882908D01*
X144430207Y-95986878D01*
X144510571Y-96067242D01*
X144614544Y-96113151D01*
X144639961Y-96116099D01*
X144891541Y-96116099D01*
X144935735Y-96134405D01*
X144954041Y-96178599D01*
X144935737Y-96222792D01*
X144924206Y-96234323D01*
X144878298Y-96338294D01*
X144875350Y-96363711D01*
X144875350Y-96782100D01*
X145656850Y-96782100D01*
X145701044Y-96800406D01*
X145719350Y-96844600D01*
X145719350Y-96934100D01*
X145808850Y-96934100D01*
X145853044Y-96952406D01*
X145871350Y-96996600D01*
X145871350Y-97763099D01*
X146037850Y-97763099D01*
X146082044Y-97781405D01*
X146100350Y-97825599D01*
X146100350Y-97896100D01*
X146082044Y-97940294D01*
X146037850Y-97958600D01*
X145159602Y-97958600D01*
X145101119Y-97970232D01*
X145101117Y-97970233D01*
X145034797Y-98014547D01*
X144990483Y-98080867D01*
X144990482Y-98080869D01*
X144978850Y-98139351D01*
X144978850Y-98762600D01*
X144960544Y-98806794D01*
X144916350Y-98825100D01*
X144458800Y-98825100D01*
X144414606Y-98806794D01*
X144396300Y-98762600D01*
X144396300Y-98528434D01*
X144396299Y-98528428D01*
X144383516Y-98480726D01*
X144373981Y-98445140D01*
X144330865Y-98370460D01*
X144269890Y-98309485D01*
X144113156Y-98152751D01*
X144094850Y-98108557D01*
X144094850Y-97504488D01*
X144875351Y-97504488D01*
X144878299Y-97529907D01*
X144878299Y-97529908D01*
X144924207Y-97633878D01*
X145004571Y-97714242D01*
X145108544Y-97760151D01*
X145133961Y-97763099D01*
X145567350Y-97763099D01*
X145567350Y-97086100D01*
X144875351Y-97086100D01*
X144875351Y-97504488D01*
X144094850Y-97504488D01*
X144094850Y-97112352D01*
X144083217Y-97053869D01*
X144083216Y-97053867D01*
X144038902Y-96987547D01*
X143972582Y-96943233D01*
X143972580Y-96943232D01*
X143914098Y-96931600D01*
X143495850Y-96931600D01*
X143451656Y-96913294D01*
X143433350Y-96869100D01*
X143433350Y-94442600D01*
X143451656Y-94398406D01*
X143495850Y-94380100D01*
X144318850Y-94380100D01*
X144363044Y-94398406D01*
G37*
%TD.AperFunction*%
%TD*%
%TA.AperFunction,Conductor*%
%TO.N,GND*%
G36*
X153067044Y-94779406D02*
G01*
X153085350Y-94823600D01*
X153085350Y-95777100D01*
X154419850Y-95777100D01*
X154464044Y-95795406D01*
X154482350Y-95839600D01*
X154482350Y-96752100D01*
X154464044Y-96796294D01*
X154419850Y-96814600D01*
X154304602Y-96814600D01*
X154246119Y-96826232D01*
X154246117Y-96826233D01*
X154179797Y-96870547D01*
X154135483Y-96936867D01*
X154135482Y-96936869D01*
X154123850Y-96995351D01*
X154123850Y-98114848D01*
X154135482Y-98173330D01*
X154135483Y-98173332D01*
X154179797Y-98239652D01*
X154246117Y-98283966D01*
X154246119Y-98283967D01*
X154304602Y-98295600D01*
X154419850Y-98295600D01*
X154464044Y-98313906D01*
X154482350Y-98358100D01*
X154482350Y-98698100D01*
X157188350Y-98698100D01*
X157232544Y-98716406D01*
X157250850Y-98760600D01*
X157250850Y-99270600D01*
X157232544Y-99314794D01*
X157188350Y-99333100D01*
X153301350Y-99333100D01*
X153257156Y-99314794D01*
X153238850Y-99270600D01*
X153238850Y-98509352D01*
X153227217Y-98450869D01*
X153221892Y-98442899D01*
X153182902Y-98384547D01*
X153116582Y-98340233D01*
X153116580Y-98340232D01*
X153058098Y-98328600D01*
X152018602Y-98328600D01*
X151960119Y-98340232D01*
X151960117Y-98340233D01*
X151893797Y-98384547D01*
X151872566Y-98416323D01*
X151832792Y-98442899D01*
X151820599Y-98444100D01*
X151556101Y-98444100D01*
X151511907Y-98425794D01*
X151510606Y-98424454D01*
X151507030Y-98420657D01*
X151482902Y-98384548D01*
X151456226Y-98366723D01*
X151451355Y-98361552D01*
X151445193Y-98345321D01*
X151435551Y-98330889D01*
X151434350Y-98318698D01*
X151434350Y-94823600D01*
X151452656Y-94779406D01*
X151496850Y-94761100D01*
X153022850Y-94761100D01*
X153067044Y-94779406D01*
G37*
%TD.AperFunction*%
%TD*%
M02*
