%TF.GenerationSoftware,KiCad,Pcbnew,10.0.2*%
%TF.CreationDate,2026-05-14T09:20:35+02:00*%
%TF.ProjectId,USB-DB9_Adapter,5553422d-4442-4395-9f41-646170746572,rev?*%
%TF.SameCoordinates,Original*%
%TF.FileFunction,Legend,Bot*%
%TF.FilePolarity,Positive*%
%FSLAX46Y46*%
G04 Gerber Fmt 4.6, Leading zero omitted, Abs format (unit mm)*
G04 Created by KiCad (PCBNEW 10.0.2) date 2026-05-14 09:20:35*
%MOMM*%
%LPD*%
G01*
G04 APERTURE LIST*
%ADD10C,0.100000*%
G04 APERTURE END LIST*
D10*
X147676335Y-117476195D02*
X147676335Y-118123814D01*
X147676335Y-118123814D02*
X147652525Y-118200004D01*
X147652525Y-118200004D02*
X147628716Y-118238100D01*
X147628716Y-118238100D02*
X147581097Y-118276195D01*
X147581097Y-118276195D02*
X147485859Y-118276195D01*
X147485859Y-118276195D02*
X147438240Y-118238100D01*
X147438240Y-118238100D02*
X147414430Y-118200004D01*
X147414430Y-118200004D02*
X147390621Y-118123814D01*
X147390621Y-118123814D02*
X147390621Y-117476195D01*
X147176334Y-118238100D02*
X147104906Y-118276195D01*
X147104906Y-118276195D02*
X146985858Y-118276195D01*
X146985858Y-118276195D02*
X146938239Y-118238100D01*
X146938239Y-118238100D02*
X146914430Y-118200004D01*
X146914430Y-118200004D02*
X146890620Y-118123814D01*
X146890620Y-118123814D02*
X146890620Y-118047623D01*
X146890620Y-118047623D02*
X146914430Y-117971433D01*
X146914430Y-117971433D02*
X146938239Y-117933338D01*
X146938239Y-117933338D02*
X146985858Y-117895242D01*
X146985858Y-117895242D02*
X147081096Y-117857147D01*
X147081096Y-117857147D02*
X147128715Y-117819052D01*
X147128715Y-117819052D02*
X147152525Y-117780957D01*
X147152525Y-117780957D02*
X147176334Y-117704766D01*
X147176334Y-117704766D02*
X147176334Y-117628576D01*
X147176334Y-117628576D02*
X147152525Y-117552385D01*
X147152525Y-117552385D02*
X147128715Y-117514290D01*
X147128715Y-117514290D02*
X147081096Y-117476195D01*
X147081096Y-117476195D02*
X146962049Y-117476195D01*
X146962049Y-117476195D02*
X146890620Y-117514290D01*
X146509668Y-117857147D02*
X146438240Y-117895242D01*
X146438240Y-117895242D02*
X146414430Y-117933338D01*
X146414430Y-117933338D02*
X146390621Y-118009528D01*
X146390621Y-118009528D02*
X146390621Y-118123814D01*
X146390621Y-118123814D02*
X146414430Y-118200004D01*
X146414430Y-118200004D02*
X146438240Y-118238100D01*
X146438240Y-118238100D02*
X146485859Y-118276195D01*
X146485859Y-118276195D02*
X146676335Y-118276195D01*
X146676335Y-118276195D02*
X146676335Y-117476195D01*
X146676335Y-117476195D02*
X146509668Y-117476195D01*
X146509668Y-117476195D02*
X146462049Y-117514290D01*
X146462049Y-117514290D02*
X146438240Y-117552385D01*
X146438240Y-117552385D02*
X146414430Y-117628576D01*
X146414430Y-117628576D02*
X146414430Y-117704766D01*
X146414430Y-117704766D02*
X146438240Y-117780957D01*
X146438240Y-117780957D02*
X146462049Y-117819052D01*
X146462049Y-117819052D02*
X146509668Y-117857147D01*
X146509668Y-117857147D02*
X146676335Y-117857147D01*
X146176335Y-117971433D02*
X145795383Y-117971433D01*
X145557287Y-118276195D02*
X145557287Y-117476195D01*
X145557287Y-117476195D02*
X145438239Y-117476195D01*
X145438239Y-117476195D02*
X145366811Y-117514290D01*
X145366811Y-117514290D02*
X145319192Y-117590480D01*
X145319192Y-117590480D02*
X145295382Y-117666671D01*
X145295382Y-117666671D02*
X145271573Y-117819052D01*
X145271573Y-117819052D02*
X145271573Y-117933338D01*
X145271573Y-117933338D02*
X145295382Y-118085719D01*
X145295382Y-118085719D02*
X145319192Y-118161909D01*
X145319192Y-118161909D02*
X145366811Y-118238100D01*
X145366811Y-118238100D02*
X145438239Y-118276195D01*
X145438239Y-118276195D02*
X145557287Y-118276195D01*
X144890620Y-117857147D02*
X144819192Y-117895242D01*
X144819192Y-117895242D02*
X144795382Y-117933338D01*
X144795382Y-117933338D02*
X144771573Y-118009528D01*
X144771573Y-118009528D02*
X144771573Y-118123814D01*
X144771573Y-118123814D02*
X144795382Y-118200004D01*
X144795382Y-118200004D02*
X144819192Y-118238100D01*
X144819192Y-118238100D02*
X144866811Y-118276195D01*
X144866811Y-118276195D02*
X145057287Y-118276195D01*
X145057287Y-118276195D02*
X145057287Y-117476195D01*
X145057287Y-117476195D02*
X144890620Y-117476195D01*
X144890620Y-117476195D02*
X144843001Y-117514290D01*
X144843001Y-117514290D02*
X144819192Y-117552385D01*
X144819192Y-117552385D02*
X144795382Y-117628576D01*
X144795382Y-117628576D02*
X144795382Y-117704766D01*
X144795382Y-117704766D02*
X144819192Y-117780957D01*
X144819192Y-117780957D02*
X144843001Y-117819052D01*
X144843001Y-117819052D02*
X144890620Y-117857147D01*
X144890620Y-117857147D02*
X145057287Y-117857147D01*
X144533477Y-118276195D02*
X144438239Y-118276195D01*
X144438239Y-118276195D02*
X144390620Y-118238100D01*
X144390620Y-118238100D02*
X144366811Y-118200004D01*
X144366811Y-118200004D02*
X144319192Y-118085719D01*
X144319192Y-118085719D02*
X144295382Y-117933338D01*
X144295382Y-117933338D02*
X144295382Y-117628576D01*
X144295382Y-117628576D02*
X144319192Y-117552385D01*
X144319192Y-117552385D02*
X144343001Y-117514290D01*
X144343001Y-117514290D02*
X144390620Y-117476195D01*
X144390620Y-117476195D02*
X144485858Y-117476195D01*
X144485858Y-117476195D02*
X144533477Y-117514290D01*
X144533477Y-117514290D02*
X144557287Y-117552385D01*
X144557287Y-117552385D02*
X144581096Y-117628576D01*
X144581096Y-117628576D02*
X144581096Y-117819052D01*
X144581096Y-117819052D02*
X144557287Y-117895242D01*
X144557287Y-117895242D02*
X144533477Y-117933338D01*
X144533477Y-117933338D02*
X144485858Y-117971433D01*
X144485858Y-117971433D02*
X144390620Y-117971433D01*
X144390620Y-117971433D02*
X144343001Y-117933338D01*
X144343001Y-117933338D02*
X144319192Y-117895242D01*
X144319192Y-117895242D02*
X144295382Y-117819052D01*
X143723954Y-118047623D02*
X143485859Y-118047623D01*
X143771573Y-118276195D02*
X143604907Y-117476195D01*
X143604907Y-117476195D02*
X143438240Y-118276195D01*
X143057288Y-118276195D02*
X143057288Y-117476195D01*
X143057288Y-118238100D02*
X143104907Y-118276195D01*
X143104907Y-118276195D02*
X143200145Y-118276195D01*
X143200145Y-118276195D02*
X143247764Y-118238100D01*
X143247764Y-118238100D02*
X143271574Y-118200004D01*
X143271574Y-118200004D02*
X143295383Y-118123814D01*
X143295383Y-118123814D02*
X143295383Y-117895242D01*
X143295383Y-117895242D02*
X143271574Y-117819052D01*
X143271574Y-117819052D02*
X143247764Y-117780957D01*
X143247764Y-117780957D02*
X143200145Y-117742861D01*
X143200145Y-117742861D02*
X143104907Y-117742861D01*
X143104907Y-117742861D02*
X143057288Y-117780957D01*
X142604907Y-118276195D02*
X142604907Y-117857147D01*
X142604907Y-117857147D02*
X142628717Y-117780957D01*
X142628717Y-117780957D02*
X142676336Y-117742861D01*
X142676336Y-117742861D02*
X142771574Y-117742861D01*
X142771574Y-117742861D02*
X142819193Y-117780957D01*
X142604907Y-118238100D02*
X142652526Y-118276195D01*
X142652526Y-118276195D02*
X142771574Y-118276195D01*
X142771574Y-118276195D02*
X142819193Y-118238100D01*
X142819193Y-118238100D02*
X142843002Y-118161909D01*
X142843002Y-118161909D02*
X142843002Y-118085719D01*
X142843002Y-118085719D02*
X142819193Y-118009528D01*
X142819193Y-118009528D02*
X142771574Y-117971433D01*
X142771574Y-117971433D02*
X142652526Y-117971433D01*
X142652526Y-117971433D02*
X142604907Y-117933338D01*
X142366812Y-117742861D02*
X142366812Y-118542861D01*
X142366812Y-117780957D02*
X142319193Y-117742861D01*
X142319193Y-117742861D02*
X142223955Y-117742861D01*
X142223955Y-117742861D02*
X142176336Y-117780957D01*
X142176336Y-117780957D02*
X142152526Y-117819052D01*
X142152526Y-117819052D02*
X142128717Y-117895242D01*
X142128717Y-117895242D02*
X142128717Y-118123814D01*
X142128717Y-118123814D02*
X142152526Y-118200004D01*
X142152526Y-118200004D02*
X142176336Y-118238100D01*
X142176336Y-118238100D02*
X142223955Y-118276195D01*
X142223955Y-118276195D02*
X142319193Y-118276195D01*
X142319193Y-118276195D02*
X142366812Y-118238100D01*
X141985859Y-117742861D02*
X141795383Y-117742861D01*
X141914431Y-117476195D02*
X141914431Y-118161909D01*
X141914431Y-118161909D02*
X141890621Y-118238100D01*
X141890621Y-118238100D02*
X141843002Y-118276195D01*
X141843002Y-118276195D02*
X141795383Y-118276195D01*
X141438241Y-118238100D02*
X141485860Y-118276195D01*
X141485860Y-118276195D02*
X141581098Y-118276195D01*
X141581098Y-118276195D02*
X141628717Y-118238100D01*
X141628717Y-118238100D02*
X141652526Y-118161909D01*
X141652526Y-118161909D02*
X141652526Y-117857147D01*
X141652526Y-117857147D02*
X141628717Y-117780957D01*
X141628717Y-117780957D02*
X141581098Y-117742861D01*
X141581098Y-117742861D02*
X141485860Y-117742861D01*
X141485860Y-117742861D02*
X141438241Y-117780957D01*
X141438241Y-117780957D02*
X141414431Y-117857147D01*
X141414431Y-117857147D02*
X141414431Y-117933338D01*
X141414431Y-117933338D02*
X141652526Y-118009528D01*
X141200146Y-118276195D02*
X141200146Y-117742861D01*
X141200146Y-117895242D02*
X141176336Y-117819052D01*
X141176336Y-117819052D02*
X141152527Y-117780957D01*
X141152527Y-117780957D02*
X141104908Y-117742861D01*
X141104908Y-117742861D02*
X141057289Y-117742861D01*
X140509670Y-118276195D02*
X140509670Y-117476195D01*
X140509670Y-117780957D02*
X140462051Y-117742861D01*
X140462051Y-117742861D02*
X140366813Y-117742861D01*
X140366813Y-117742861D02*
X140319194Y-117780957D01*
X140319194Y-117780957D02*
X140295384Y-117819052D01*
X140295384Y-117819052D02*
X140271575Y-117895242D01*
X140271575Y-117895242D02*
X140271575Y-118123814D01*
X140271575Y-118123814D02*
X140295384Y-118200004D01*
X140295384Y-118200004D02*
X140319194Y-118238100D01*
X140319194Y-118238100D02*
X140366813Y-118276195D01*
X140366813Y-118276195D02*
X140462051Y-118276195D01*
X140462051Y-118276195D02*
X140509670Y-118238100D01*
X140104908Y-117742861D02*
X139985860Y-118276195D01*
X139866813Y-117742861D02*
X139985860Y-118276195D01*
X139985860Y-118276195D02*
X140033479Y-118466671D01*
X140033479Y-118466671D02*
X140057289Y-118504766D01*
X140057289Y-118504766D02*
X140104908Y-118542861D01*
X139295385Y-118276195D02*
X139295385Y-117476195D01*
X139295385Y-117476195D02*
X139128718Y-118047623D01*
X139128718Y-118047623D02*
X138962052Y-117476195D01*
X138962052Y-117476195D02*
X138962052Y-118276195D01*
X138723956Y-118200004D02*
X138700146Y-118238100D01*
X138700146Y-118238100D02*
X138723956Y-118276195D01*
X138723956Y-118276195D02*
X138747765Y-118238100D01*
X138747765Y-118238100D02*
X138723956Y-118200004D01*
X138723956Y-118200004D02*
X138723956Y-118276195D01*
X138081099Y-118276195D02*
X138104909Y-118276195D01*
X138104909Y-118276195D02*
X138152528Y-118238100D01*
X138152528Y-118238100D02*
X138223956Y-118123814D01*
X138223956Y-118123814D02*
X138343004Y-117895242D01*
X138343004Y-117895242D02*
X138390623Y-117780957D01*
X138390623Y-117780957D02*
X138414432Y-117666671D01*
X138414432Y-117666671D02*
X138414432Y-117590480D01*
X138414432Y-117590480D02*
X138390623Y-117514290D01*
X138390623Y-117514290D02*
X138343004Y-117476195D01*
X138343004Y-117476195D02*
X138319194Y-117476195D01*
X138319194Y-117476195D02*
X138271575Y-117514290D01*
X138271575Y-117514290D02*
X138247766Y-117590480D01*
X138247766Y-117590480D02*
X138247766Y-117628576D01*
X138247766Y-117628576D02*
X138271575Y-117704766D01*
X138271575Y-117704766D02*
X138295385Y-117742861D01*
X138295385Y-117742861D02*
X138438242Y-117895242D01*
X138438242Y-117895242D02*
X138462051Y-117933338D01*
X138462051Y-117933338D02*
X138485861Y-118009528D01*
X138485861Y-118009528D02*
X138485861Y-118123814D01*
X138485861Y-118123814D02*
X138462051Y-118200004D01*
X138462051Y-118200004D02*
X138438242Y-118238100D01*
X138438242Y-118238100D02*
X138390623Y-118276195D01*
X138390623Y-118276195D02*
X138319194Y-118276195D01*
X138319194Y-118276195D02*
X138271575Y-118238100D01*
X138271575Y-118238100D02*
X138247766Y-118200004D01*
X138247766Y-118200004D02*
X138176337Y-118047623D01*
X138176337Y-118047623D02*
X138152528Y-117933338D01*
X138152528Y-117933338D02*
X138152528Y-117857147D01*
X137509670Y-118238100D02*
X137438242Y-118276195D01*
X137438242Y-118276195D02*
X137319194Y-118276195D01*
X137319194Y-118276195D02*
X137271575Y-118238100D01*
X137271575Y-118238100D02*
X137247766Y-118200004D01*
X137247766Y-118200004D02*
X137223956Y-118123814D01*
X137223956Y-118123814D02*
X137223956Y-118047623D01*
X137223956Y-118047623D02*
X137247766Y-117971433D01*
X137247766Y-117971433D02*
X137271575Y-117933338D01*
X137271575Y-117933338D02*
X137319194Y-117895242D01*
X137319194Y-117895242D02*
X137414432Y-117857147D01*
X137414432Y-117857147D02*
X137462051Y-117819052D01*
X137462051Y-117819052D02*
X137485861Y-117780957D01*
X137485861Y-117780957D02*
X137509670Y-117704766D01*
X137509670Y-117704766D02*
X137509670Y-117628576D01*
X137509670Y-117628576D02*
X137485861Y-117552385D01*
X137485861Y-117552385D02*
X137462051Y-117514290D01*
X137462051Y-117514290D02*
X137414432Y-117476195D01*
X137414432Y-117476195D02*
X137295385Y-117476195D01*
X137295385Y-117476195D02*
X137223956Y-117514290D01*
X137009671Y-118200004D02*
X136985861Y-118238100D01*
X136985861Y-118238100D02*
X137009671Y-118276195D01*
X137009671Y-118276195D02*
X137033480Y-118238100D01*
X137033480Y-118238100D02*
X137009671Y-118200004D01*
X137009671Y-118200004D02*
X137009671Y-118276195D01*
X136223957Y-117857147D02*
X136152529Y-117895242D01*
X136152529Y-117895242D02*
X136128719Y-117933338D01*
X136128719Y-117933338D02*
X136104910Y-118009528D01*
X136104910Y-118009528D02*
X136104910Y-118123814D01*
X136104910Y-118123814D02*
X136128719Y-118200004D01*
X136128719Y-118200004D02*
X136152529Y-118238100D01*
X136152529Y-118238100D02*
X136200148Y-118276195D01*
X136200148Y-118276195D02*
X136390624Y-118276195D01*
X136390624Y-118276195D02*
X136390624Y-117476195D01*
X136390624Y-117476195D02*
X136223957Y-117476195D01*
X136223957Y-117476195D02*
X136176338Y-117514290D01*
X136176338Y-117514290D02*
X136152529Y-117552385D01*
X136152529Y-117552385D02*
X136128719Y-117628576D01*
X136128719Y-117628576D02*
X136128719Y-117704766D01*
X136128719Y-117704766D02*
X136152529Y-117780957D01*
X136152529Y-117780957D02*
X136176338Y-117819052D01*
X136176338Y-117819052D02*
X136223957Y-117857147D01*
X136223957Y-117857147D02*
X136390624Y-117857147D01*
X135700148Y-118238100D02*
X135747767Y-118276195D01*
X135747767Y-118276195D02*
X135843005Y-118276195D01*
X135843005Y-118276195D02*
X135890624Y-118238100D01*
X135890624Y-118238100D02*
X135914433Y-118161909D01*
X135914433Y-118161909D02*
X135914433Y-117857147D01*
X135914433Y-117857147D02*
X135890624Y-117780957D01*
X135890624Y-117780957D02*
X135843005Y-117742861D01*
X135843005Y-117742861D02*
X135747767Y-117742861D01*
X135747767Y-117742861D02*
X135700148Y-117780957D01*
X135700148Y-117780957D02*
X135676338Y-117857147D01*
X135676338Y-117857147D02*
X135676338Y-117933338D01*
X135676338Y-117933338D02*
X135914433Y-118009528D01*
X135462053Y-118276195D02*
X135462053Y-117476195D01*
X135247767Y-118276195D02*
X135247767Y-117857147D01*
X135247767Y-117857147D02*
X135271577Y-117780957D01*
X135271577Y-117780957D02*
X135319196Y-117742861D01*
X135319196Y-117742861D02*
X135390624Y-117742861D01*
X135390624Y-117742861D02*
X135438243Y-117780957D01*
X135438243Y-117780957D02*
X135462053Y-117819052D01*
X134795386Y-118276195D02*
X134795386Y-117857147D01*
X134795386Y-117857147D02*
X134819196Y-117780957D01*
X134819196Y-117780957D02*
X134866815Y-117742861D01*
X134866815Y-117742861D02*
X134962053Y-117742861D01*
X134962053Y-117742861D02*
X135009672Y-117780957D01*
X134795386Y-118238100D02*
X134843005Y-118276195D01*
X134843005Y-118276195D02*
X134962053Y-118276195D01*
X134962053Y-118276195D02*
X135009672Y-118238100D01*
X135009672Y-118238100D02*
X135033481Y-118161909D01*
X135033481Y-118161909D02*
X135033481Y-118085719D01*
X135033481Y-118085719D02*
X135009672Y-118009528D01*
X135009672Y-118009528D02*
X134962053Y-117971433D01*
X134962053Y-117971433D02*
X134843005Y-117971433D01*
X134843005Y-117971433D02*
X134795386Y-117933338D01*
X145215941Y-99395195D02*
X144930227Y-99395195D01*
X145073084Y-100195195D02*
X145073084Y-99395195D01*
X144763561Y-100195195D02*
X144763561Y-99395195D01*
X144763561Y-99395195D02*
X144573085Y-99395195D01*
X144573085Y-99395195D02*
X144525466Y-99433290D01*
X144525466Y-99433290D02*
X144501656Y-99471385D01*
X144501656Y-99471385D02*
X144477847Y-99547576D01*
X144477847Y-99547576D02*
X144477847Y-99661861D01*
X144477847Y-99661861D02*
X144501656Y-99738052D01*
X144501656Y-99738052D02*
X144525466Y-99776147D01*
X144525466Y-99776147D02*
X144573085Y-99814242D01*
X144573085Y-99814242D02*
X144763561Y-99814242D01*
X144001656Y-100195195D02*
X144287370Y-100195195D01*
X144144513Y-100195195D02*
X144144513Y-99395195D01*
X144144513Y-99395195D02*
X144192132Y-99509480D01*
X144192132Y-99509480D02*
X144239751Y-99585671D01*
X144239751Y-99585671D02*
X144287370Y-99623766D01*
X143834990Y-99395195D02*
X143525466Y-99395195D01*
X143525466Y-99395195D02*
X143692133Y-99699957D01*
X143692133Y-99699957D02*
X143620704Y-99699957D01*
X143620704Y-99699957D02*
X143573085Y-99738052D01*
X143573085Y-99738052D02*
X143549276Y-99776147D01*
X143549276Y-99776147D02*
X143525466Y-99852338D01*
X143525466Y-99852338D02*
X143525466Y-100042814D01*
X143525466Y-100042814D02*
X143549276Y-100119004D01*
X143549276Y-100119004D02*
X143573085Y-100157100D01*
X143573085Y-100157100D02*
X143620704Y-100195195D01*
X143620704Y-100195195D02*
X143763561Y-100195195D01*
X143763561Y-100195195D02*
X143811180Y-100157100D01*
X143811180Y-100157100D02*
X143834990Y-100119004D01*
X155934741Y-102951195D02*
X155649027Y-102951195D01*
X155791884Y-103751195D02*
X155791884Y-102951195D01*
X155482361Y-103751195D02*
X155482361Y-102951195D01*
X155482361Y-102951195D02*
X155291885Y-102951195D01*
X155291885Y-102951195D02*
X155244266Y-102989290D01*
X155244266Y-102989290D02*
X155220456Y-103027385D01*
X155220456Y-103027385D02*
X155196647Y-103103576D01*
X155196647Y-103103576D02*
X155196647Y-103217861D01*
X155196647Y-103217861D02*
X155220456Y-103294052D01*
X155220456Y-103294052D02*
X155244266Y-103332147D01*
X155244266Y-103332147D02*
X155291885Y-103370242D01*
X155291885Y-103370242D02*
X155482361Y-103370242D01*
X154720456Y-103751195D02*
X155006170Y-103751195D01*
X154863313Y-103751195D02*
X154863313Y-102951195D01*
X154863313Y-102951195D02*
X154910932Y-103065480D01*
X154910932Y-103065480D02*
X154958551Y-103141671D01*
X154958551Y-103141671D02*
X155006170Y-103179766D01*
X154529980Y-103027385D02*
X154506171Y-102989290D01*
X154506171Y-102989290D02*
X154458552Y-102951195D01*
X154458552Y-102951195D02*
X154339504Y-102951195D01*
X154339504Y-102951195D02*
X154291885Y-102989290D01*
X154291885Y-102989290D02*
X154268076Y-103027385D01*
X154268076Y-103027385D02*
X154244266Y-103103576D01*
X154244266Y-103103576D02*
X154244266Y-103179766D01*
X154244266Y-103179766D02*
X154268076Y-103294052D01*
X154268076Y-103294052D02*
X154553790Y-103751195D01*
X154553790Y-103751195D02*
X154244266Y-103751195D01*
X145215941Y-108539195D02*
X144930227Y-108539195D01*
X145073084Y-109339195D02*
X145073084Y-108539195D01*
X144763561Y-109339195D02*
X144763561Y-108539195D01*
X144763561Y-108539195D02*
X144573085Y-108539195D01*
X144573085Y-108539195D02*
X144525466Y-108577290D01*
X144525466Y-108577290D02*
X144501656Y-108615385D01*
X144501656Y-108615385D02*
X144477847Y-108691576D01*
X144477847Y-108691576D02*
X144477847Y-108805861D01*
X144477847Y-108805861D02*
X144501656Y-108882052D01*
X144501656Y-108882052D02*
X144525466Y-108920147D01*
X144525466Y-108920147D02*
X144573085Y-108958242D01*
X144573085Y-108958242D02*
X144763561Y-108958242D01*
X144001656Y-109339195D02*
X144287370Y-109339195D01*
X144144513Y-109339195D02*
X144144513Y-108539195D01*
X144144513Y-108539195D02*
X144192132Y-108653480D01*
X144192132Y-108653480D02*
X144239751Y-108729671D01*
X144239751Y-108729671D02*
X144287370Y-108767766D01*
X155934741Y-96150295D02*
X155649027Y-96150295D01*
X155791884Y-96950295D02*
X155791884Y-96150295D01*
X155482361Y-96950295D02*
X155482361Y-96150295D01*
X155482361Y-96150295D02*
X155291885Y-96150295D01*
X155291885Y-96150295D02*
X155244266Y-96188390D01*
X155244266Y-96188390D02*
X155220456Y-96226485D01*
X155220456Y-96226485D02*
X155196647Y-96302676D01*
X155196647Y-96302676D02*
X155196647Y-96416961D01*
X155196647Y-96416961D02*
X155220456Y-96493152D01*
X155220456Y-96493152D02*
X155244266Y-96531247D01*
X155244266Y-96531247D02*
X155291885Y-96569342D01*
X155291885Y-96569342D02*
X155482361Y-96569342D01*
X154720456Y-96950295D02*
X155006170Y-96950295D01*
X154863313Y-96950295D02*
X154863313Y-96150295D01*
X154863313Y-96150295D02*
X154910932Y-96264580D01*
X154910932Y-96264580D02*
X154958551Y-96340771D01*
X154958551Y-96340771D02*
X155006170Y-96378866D01*
X154244266Y-96950295D02*
X154529980Y-96950295D01*
X154387123Y-96950295D02*
X154387123Y-96150295D01*
X154387123Y-96150295D02*
X154434742Y-96264580D01*
X154434742Y-96264580D02*
X154482361Y-96340771D01*
X154482361Y-96340771D02*
X154529980Y-96378866D01*
X155934741Y-104602195D02*
X155649027Y-104602195D01*
X155791884Y-105402195D02*
X155791884Y-104602195D01*
X155482361Y-105402195D02*
X155482361Y-104602195D01*
X155482361Y-104602195D02*
X155291885Y-104602195D01*
X155291885Y-104602195D02*
X155244266Y-104640290D01*
X155244266Y-104640290D02*
X155220456Y-104678385D01*
X155220456Y-104678385D02*
X155196647Y-104754576D01*
X155196647Y-104754576D02*
X155196647Y-104868861D01*
X155196647Y-104868861D02*
X155220456Y-104945052D01*
X155220456Y-104945052D02*
X155244266Y-104983147D01*
X155244266Y-104983147D02*
X155291885Y-105021242D01*
X155291885Y-105021242D02*
X155482361Y-105021242D01*
X154768075Y-104868861D02*
X154768075Y-105402195D01*
X154887123Y-104564100D02*
X155006170Y-105135528D01*
X155006170Y-105135528D02*
X154696647Y-105135528D01*
X155934741Y-106380195D02*
X155649027Y-106380195D01*
X155791884Y-107180195D02*
X155791884Y-106380195D01*
X155482361Y-107180195D02*
X155482361Y-106380195D01*
X155482361Y-106380195D02*
X155291885Y-106380195D01*
X155291885Y-106380195D02*
X155244266Y-106418290D01*
X155244266Y-106418290D02*
X155220456Y-106456385D01*
X155220456Y-106456385D02*
X155196647Y-106532576D01*
X155196647Y-106532576D02*
X155196647Y-106646861D01*
X155196647Y-106646861D02*
X155220456Y-106723052D01*
X155220456Y-106723052D02*
X155244266Y-106761147D01*
X155244266Y-106761147D02*
X155291885Y-106799242D01*
X155291885Y-106799242D02*
X155482361Y-106799242D01*
X155029980Y-106380195D02*
X154696647Y-106380195D01*
X154696647Y-106380195D02*
X154910932Y-107180195D01*
X145215941Y-102824195D02*
X144930227Y-102824195D01*
X145073084Y-103624195D02*
X145073084Y-102824195D01*
X144763561Y-103624195D02*
X144763561Y-102824195D01*
X144763561Y-102824195D02*
X144573085Y-102824195D01*
X144573085Y-102824195D02*
X144525466Y-102862290D01*
X144525466Y-102862290D02*
X144501656Y-102900385D01*
X144501656Y-102900385D02*
X144477847Y-102976576D01*
X144477847Y-102976576D02*
X144477847Y-103090861D01*
X144477847Y-103090861D02*
X144501656Y-103167052D01*
X144501656Y-103167052D02*
X144525466Y-103205147D01*
X144525466Y-103205147D02*
X144573085Y-103243242D01*
X144573085Y-103243242D02*
X144763561Y-103243242D01*
X144025466Y-102824195D02*
X144263561Y-102824195D01*
X144263561Y-102824195D02*
X144287370Y-103205147D01*
X144287370Y-103205147D02*
X144263561Y-103167052D01*
X144263561Y-103167052D02*
X144215942Y-103128957D01*
X144215942Y-103128957D02*
X144096894Y-103128957D01*
X144096894Y-103128957D02*
X144049275Y-103167052D01*
X144049275Y-103167052D02*
X144025466Y-103205147D01*
X144025466Y-103205147D02*
X144001656Y-103281338D01*
X144001656Y-103281338D02*
X144001656Y-103471814D01*
X144001656Y-103471814D02*
X144025466Y-103548004D01*
X144025466Y-103548004D02*
X144049275Y-103586100D01*
X144049275Y-103586100D02*
X144096894Y-103624195D01*
X144096894Y-103624195D02*
X144215942Y-103624195D01*
X144215942Y-103624195D02*
X144263561Y-103586100D01*
X144263561Y-103586100D02*
X144287370Y-103548004D01*
X145215941Y-106634195D02*
X144930227Y-106634195D01*
X145073084Y-107434195D02*
X145073084Y-106634195D01*
X144763561Y-107434195D02*
X144763561Y-106634195D01*
X144763561Y-106634195D02*
X144573085Y-106634195D01*
X144573085Y-106634195D02*
X144525466Y-106672290D01*
X144525466Y-106672290D02*
X144501656Y-106710385D01*
X144501656Y-106710385D02*
X144477847Y-106786576D01*
X144477847Y-106786576D02*
X144477847Y-106900861D01*
X144477847Y-106900861D02*
X144501656Y-106977052D01*
X144501656Y-106977052D02*
X144525466Y-107015147D01*
X144525466Y-107015147D02*
X144573085Y-107053242D01*
X144573085Y-107053242D02*
X144763561Y-107053242D01*
X144287370Y-106710385D02*
X144263561Y-106672290D01*
X144263561Y-106672290D02*
X144215942Y-106634195D01*
X144215942Y-106634195D02*
X144096894Y-106634195D01*
X144096894Y-106634195D02*
X144049275Y-106672290D01*
X144049275Y-106672290D02*
X144025466Y-106710385D01*
X144025466Y-106710385D02*
X144001656Y-106786576D01*
X144001656Y-106786576D02*
X144001656Y-106862766D01*
X144001656Y-106862766D02*
X144025466Y-106977052D01*
X144025466Y-106977052D02*
X144311180Y-107434195D01*
X144311180Y-107434195D02*
X144001656Y-107434195D01*
X155934741Y-100030195D02*
X155649027Y-100030195D01*
X155791884Y-100830195D02*
X155791884Y-100030195D01*
X155482361Y-100830195D02*
X155482361Y-100030195D01*
X155482361Y-100030195D02*
X155291885Y-100030195D01*
X155291885Y-100030195D02*
X155244266Y-100068290D01*
X155244266Y-100068290D02*
X155220456Y-100106385D01*
X155220456Y-100106385D02*
X155196647Y-100182576D01*
X155196647Y-100182576D02*
X155196647Y-100296861D01*
X155196647Y-100296861D02*
X155220456Y-100373052D01*
X155220456Y-100373052D02*
X155244266Y-100411147D01*
X155244266Y-100411147D02*
X155291885Y-100449242D01*
X155291885Y-100449242D02*
X155482361Y-100449242D01*
X154958551Y-100830195D02*
X154863313Y-100830195D01*
X154863313Y-100830195D02*
X154815694Y-100792100D01*
X154815694Y-100792100D02*
X154791885Y-100754004D01*
X154791885Y-100754004D02*
X154744266Y-100639719D01*
X154744266Y-100639719D02*
X154720456Y-100487338D01*
X154720456Y-100487338D02*
X154720456Y-100182576D01*
X154720456Y-100182576D02*
X154744266Y-100106385D01*
X154744266Y-100106385D02*
X154768075Y-100068290D01*
X154768075Y-100068290D02*
X154815694Y-100030195D01*
X154815694Y-100030195D02*
X154910932Y-100030195D01*
X154910932Y-100030195D02*
X154958551Y-100068290D01*
X154958551Y-100068290D02*
X154982361Y-100106385D01*
X154982361Y-100106385D02*
X155006170Y-100182576D01*
X155006170Y-100182576D02*
X155006170Y-100373052D01*
X155006170Y-100373052D02*
X154982361Y-100449242D01*
X154982361Y-100449242D02*
X154958551Y-100487338D01*
X154958551Y-100487338D02*
X154910932Y-100525433D01*
X154910932Y-100525433D02*
X154815694Y-100525433D01*
X154815694Y-100525433D02*
X154768075Y-100487338D01*
X154768075Y-100487338D02*
X154744266Y-100449242D01*
X154744266Y-100449242D02*
X154720456Y-100373052D01*
X144250741Y-111053795D02*
X143965027Y-111053795D01*
X144107884Y-111853795D02*
X144107884Y-111053795D01*
X143798361Y-111853795D02*
X143798361Y-111053795D01*
X143798361Y-111053795D02*
X143607885Y-111053795D01*
X143607885Y-111053795D02*
X143560266Y-111091890D01*
X143560266Y-111091890D02*
X143536456Y-111129985D01*
X143536456Y-111129985D02*
X143512647Y-111206176D01*
X143512647Y-111206176D02*
X143512647Y-111320461D01*
X143512647Y-111320461D02*
X143536456Y-111396652D01*
X143536456Y-111396652D02*
X143560266Y-111434747D01*
X143560266Y-111434747D02*
X143607885Y-111472842D01*
X143607885Y-111472842D02*
X143798361Y-111472842D01*
X143345980Y-111053795D02*
X143036456Y-111053795D01*
X143036456Y-111053795D02*
X143203123Y-111358557D01*
X143203123Y-111358557D02*
X143131694Y-111358557D01*
X143131694Y-111358557D02*
X143084075Y-111396652D01*
X143084075Y-111396652D02*
X143060266Y-111434747D01*
X143060266Y-111434747D02*
X143036456Y-111510938D01*
X143036456Y-111510938D02*
X143036456Y-111701414D01*
X143036456Y-111701414D02*
X143060266Y-111777604D01*
X143060266Y-111777604D02*
X143084075Y-111815700D01*
X143084075Y-111815700D02*
X143131694Y-111853795D01*
X143131694Y-111853795D02*
X143274551Y-111853795D01*
X143274551Y-111853795D02*
X143322170Y-111815700D01*
X143322170Y-111815700D02*
X143345980Y-111777604D01*
X145215941Y-101173195D02*
X144930227Y-101173195D01*
X145073084Y-101973195D02*
X145073084Y-101173195D01*
X144763561Y-101973195D02*
X144763561Y-101173195D01*
X144763561Y-101173195D02*
X144573085Y-101173195D01*
X144573085Y-101173195D02*
X144525466Y-101211290D01*
X144525466Y-101211290D02*
X144501656Y-101249385D01*
X144501656Y-101249385D02*
X144477847Y-101325576D01*
X144477847Y-101325576D02*
X144477847Y-101439861D01*
X144477847Y-101439861D02*
X144501656Y-101516052D01*
X144501656Y-101516052D02*
X144525466Y-101554147D01*
X144525466Y-101554147D02*
X144573085Y-101592242D01*
X144573085Y-101592242D02*
X144763561Y-101592242D01*
X144049275Y-101173195D02*
X144144513Y-101173195D01*
X144144513Y-101173195D02*
X144192132Y-101211290D01*
X144192132Y-101211290D02*
X144215942Y-101249385D01*
X144215942Y-101249385D02*
X144263561Y-101363671D01*
X144263561Y-101363671D02*
X144287370Y-101516052D01*
X144287370Y-101516052D02*
X144287370Y-101820814D01*
X144287370Y-101820814D02*
X144263561Y-101897004D01*
X144263561Y-101897004D02*
X144239751Y-101935100D01*
X144239751Y-101935100D02*
X144192132Y-101973195D01*
X144192132Y-101973195D02*
X144096894Y-101973195D01*
X144096894Y-101973195D02*
X144049275Y-101935100D01*
X144049275Y-101935100D02*
X144025466Y-101897004D01*
X144025466Y-101897004D02*
X144001656Y-101820814D01*
X144001656Y-101820814D02*
X144001656Y-101630338D01*
X144001656Y-101630338D02*
X144025466Y-101554147D01*
X144025466Y-101554147D02*
X144049275Y-101516052D01*
X144049275Y-101516052D02*
X144096894Y-101477957D01*
X144096894Y-101477957D02*
X144192132Y-101477957D01*
X144192132Y-101477957D02*
X144239751Y-101516052D01*
X144239751Y-101516052D02*
X144263561Y-101554147D01*
X144263561Y-101554147D02*
X144287370Y-101630338D01*
X145215941Y-104729195D02*
X144930227Y-104729195D01*
X145073084Y-105529195D02*
X145073084Y-104729195D01*
X144763561Y-105529195D02*
X144763561Y-104729195D01*
X144763561Y-104729195D02*
X144573085Y-104729195D01*
X144573085Y-104729195D02*
X144525466Y-104767290D01*
X144525466Y-104767290D02*
X144501656Y-104805385D01*
X144501656Y-104805385D02*
X144477847Y-104881576D01*
X144477847Y-104881576D02*
X144477847Y-104995861D01*
X144477847Y-104995861D02*
X144501656Y-105072052D01*
X144501656Y-105072052D02*
X144525466Y-105110147D01*
X144525466Y-105110147D02*
X144573085Y-105148242D01*
X144573085Y-105148242D02*
X144763561Y-105148242D01*
X144001656Y-105529195D02*
X144287370Y-105529195D01*
X144144513Y-105529195D02*
X144144513Y-104729195D01*
X144144513Y-104729195D02*
X144192132Y-104843480D01*
X144192132Y-104843480D02*
X144239751Y-104919671D01*
X144239751Y-104919671D02*
X144287370Y-104957766D01*
X143549276Y-104729195D02*
X143787371Y-104729195D01*
X143787371Y-104729195D02*
X143811180Y-105110147D01*
X143811180Y-105110147D02*
X143787371Y-105072052D01*
X143787371Y-105072052D02*
X143739752Y-105033957D01*
X143739752Y-105033957D02*
X143620704Y-105033957D01*
X143620704Y-105033957D02*
X143573085Y-105072052D01*
X143573085Y-105072052D02*
X143549276Y-105110147D01*
X143549276Y-105110147D02*
X143525466Y-105186338D01*
X143525466Y-105186338D02*
X143525466Y-105376814D01*
X143525466Y-105376814D02*
X143549276Y-105453004D01*
X143549276Y-105453004D02*
X143573085Y-105491100D01*
X143573085Y-105491100D02*
X143620704Y-105529195D01*
X143620704Y-105529195D02*
X143739752Y-105529195D01*
X143739752Y-105529195D02*
X143787371Y-105491100D01*
X143787371Y-105491100D02*
X143811180Y-105453004D01*
X142140758Y-98382004D02*
X142426472Y-98382004D01*
X142283615Y-97582004D02*
X142283615Y-98382004D01*
X142593138Y-97582004D02*
X142593138Y-98382004D01*
X142593138Y-98382004D02*
X142783614Y-98382004D01*
X142783614Y-98382004D02*
X142831233Y-98343909D01*
X142831233Y-98343909D02*
X142855043Y-98305814D01*
X142855043Y-98305814D02*
X142878852Y-98229623D01*
X142878852Y-98229623D02*
X142878852Y-98115338D01*
X142878852Y-98115338D02*
X142855043Y-98039147D01*
X142855043Y-98039147D02*
X142831233Y-98001052D01*
X142831233Y-98001052D02*
X142783614Y-97962957D01*
X142783614Y-97962957D02*
X142593138Y-97962957D01*
X143355043Y-97582004D02*
X143069329Y-97582004D01*
X143212186Y-97582004D02*
X143212186Y-98382004D01*
X143212186Y-98382004D02*
X143164567Y-98267719D01*
X143164567Y-98267719D02*
X143116948Y-98191528D01*
X143116948Y-98191528D02*
X143069329Y-98153433D01*
X143664566Y-98382004D02*
X143712185Y-98382004D01*
X143712185Y-98382004D02*
X143759804Y-98343909D01*
X143759804Y-98343909D02*
X143783614Y-98305814D01*
X143783614Y-98305814D02*
X143807423Y-98229623D01*
X143807423Y-98229623D02*
X143831233Y-98077242D01*
X143831233Y-98077242D02*
X143831233Y-97886766D01*
X143831233Y-97886766D02*
X143807423Y-97734385D01*
X143807423Y-97734385D02*
X143783614Y-97658195D01*
X143783614Y-97658195D02*
X143759804Y-97620100D01*
X143759804Y-97620100D02*
X143712185Y-97582004D01*
X143712185Y-97582004D02*
X143664566Y-97582004D01*
X143664566Y-97582004D02*
X143616947Y-97620100D01*
X143616947Y-97620100D02*
X143593138Y-97658195D01*
X143593138Y-97658195D02*
X143569328Y-97734385D01*
X143569328Y-97734385D02*
X143545519Y-97886766D01*
X143545519Y-97886766D02*
X143545519Y-98077242D01*
X143545519Y-98077242D02*
X143569328Y-98229623D01*
X143569328Y-98229623D02*
X143593138Y-98305814D01*
X143593138Y-98305814D02*
X143616947Y-98343909D01*
X143616947Y-98343909D02*
X143664566Y-98382004D01*
X155934741Y-98379195D02*
X155649027Y-98379195D01*
X155791884Y-99179195D02*
X155791884Y-98379195D01*
X155482361Y-99179195D02*
X155482361Y-98379195D01*
X155482361Y-98379195D02*
X155291885Y-98379195D01*
X155291885Y-98379195D02*
X155244266Y-98417290D01*
X155244266Y-98417290D02*
X155220456Y-98455385D01*
X155220456Y-98455385D02*
X155196647Y-98531576D01*
X155196647Y-98531576D02*
X155196647Y-98645861D01*
X155196647Y-98645861D02*
X155220456Y-98722052D01*
X155220456Y-98722052D02*
X155244266Y-98760147D01*
X155244266Y-98760147D02*
X155291885Y-98798242D01*
X155291885Y-98798242D02*
X155482361Y-98798242D01*
X154910932Y-98722052D02*
X154958551Y-98683957D01*
X154958551Y-98683957D02*
X154982361Y-98645861D01*
X154982361Y-98645861D02*
X155006170Y-98569671D01*
X155006170Y-98569671D02*
X155006170Y-98531576D01*
X155006170Y-98531576D02*
X154982361Y-98455385D01*
X154982361Y-98455385D02*
X154958551Y-98417290D01*
X154958551Y-98417290D02*
X154910932Y-98379195D01*
X154910932Y-98379195D02*
X154815694Y-98379195D01*
X154815694Y-98379195D02*
X154768075Y-98417290D01*
X154768075Y-98417290D02*
X154744266Y-98455385D01*
X154744266Y-98455385D02*
X154720456Y-98531576D01*
X154720456Y-98531576D02*
X154720456Y-98569671D01*
X154720456Y-98569671D02*
X154744266Y-98645861D01*
X154744266Y-98645861D02*
X154768075Y-98683957D01*
X154768075Y-98683957D02*
X154815694Y-98722052D01*
X154815694Y-98722052D02*
X154910932Y-98722052D01*
X154910932Y-98722052D02*
X154958551Y-98760147D01*
X154958551Y-98760147D02*
X154982361Y-98798242D01*
X154982361Y-98798242D02*
X155006170Y-98874433D01*
X155006170Y-98874433D02*
X155006170Y-99026814D01*
X155006170Y-99026814D02*
X154982361Y-99103004D01*
X154982361Y-99103004D02*
X154958551Y-99141100D01*
X154958551Y-99141100D02*
X154910932Y-99179195D01*
X154910932Y-99179195D02*
X154815694Y-99179195D01*
X154815694Y-99179195D02*
X154768075Y-99141100D01*
X154768075Y-99141100D02*
X154744266Y-99103004D01*
X154744266Y-99103004D02*
X154720456Y-99026814D01*
X154720456Y-99026814D02*
X154720456Y-98874433D01*
X154720456Y-98874433D02*
X154744266Y-98798242D01*
X154744266Y-98798242D02*
X154768075Y-98760147D01*
X154768075Y-98760147D02*
X154815694Y-98722052D01*
M02*
