M48
; DRILL file KiCad 10.0.2 date 2026-05-14T09:20:38
; FORMAT={-:-/ absolute / metric / decimal}
; #@! TF.CreationDate,2026-05-14T09:20:38+02:00
; #@! TF.GenerationSoftware,Kicad,Pcbnew,10.0.2
; #@! TF.FileFunction,Plated,1,2,PTH
FMAT,2
METRIC
; #@! TA.AperFunction,Plated,PTH,ViaDrill
T1C0.200
; #@! TA.AperFunction,Plated,PTH,ViaDrill
T2C0.300
; #@! TA.AperFunction,Plated,PTH,ViaDrill
T3C0.500
; #@! TA.AperFunction,Plated,PTH,ComponentDrill
T4C0.500
; #@! TA.AperFunction,Plated,PTH,ComponentDrill
T5C1.016
; #@! TA.AperFunction,Plated,PTH,ComponentDrill
T6C2.000
%
G90
G05
T1
X141.909Y-108.858
X142.036Y-107.461
X142.544Y-102.508
X142.565Y-104.307
X143.052Y-105.302
X144.068Y-101.238
X144.576Y-106.953
X145.084Y-101.746
X147.116Y-100.857
X147.751Y-100.222
X148.894Y-100.603
X149.783Y-100.603
X149.91Y-101.619
X150.545Y-102.254
X150.926Y-106.064
X150.926Y-106.953
X150.926Y-107.842
T2
X143.31Y-103.782
X143.814Y-96.158
X145.465Y-99.46
X147.497Y-104.54
X148.767Y-99.714
X148.869Y-114.584
X151.942Y-97.555
X153.085Y-96.412
X154.101Y-108.35
X155.244Y-115.589
T3
X156.133Y-110.255
T4
X144.957Y-110.382
X146.227Y-110.382
X147.497Y-110.382
X148.767Y-110.382
X150.037Y-110.382
T5
X143.399Y-112.922
X144.771Y-115.462
X146.142Y-112.922
X147.514Y-115.462
X148.885Y-112.922
X150.257Y-115.462
X151.629Y-112.922
X153.0Y-115.462
X154.372Y-112.922
T6
X143.185Y-91.612
X154.585Y-91.612
M30
